<?xml version="1.0" encoding="utf-8"?>
<!-- Generator: Adobe Illustrator 17.0.0, SVG Export Plug-In . SVG Version: 6.00 Build 0)  -->
<!DOCTYPE svg PUBLIC "-//W3C//DTD SVG 1.1//EN" "http://www.w3.org/Graphics/SVG/1.1/DTD/svg11.dtd">
<svg version="1.1" id="Layer_1" xmlns="http://www.w3.org/2000/svg" xmlns:xlink="http://www.w3.org/1999/xlink" x="0px" y="0px"
	 width="717.011px" height="157.08px" viewBox="0 0 717.011 157.08" style="enable-background:new 0 0 717.011 157.08;"
	 xml:space="preserve">
<g>
	<defs>
		<rect id="SVGID_1_" width="717.011" height="157.08"/>
	</defs>
	<clipPath id="SVGID_2_">
		<use xlink:href="#SVGID_1_"  style="overflow:visible;"/>
	</clipPath>
	<path style="clip-path:url(#SVGID_2_);fill:#FFFFFF;" d="M227.592,52.505c-2.133,2.575-4.646,4.537-7.543,5.884
		c-2.897,1.347-6.136,2.022-9.717,2.022c-3.219,0-6.206-0.584-8.961-1.751c-2.756-1.166-5.139-2.755-7.151-4.767
		c-2.013-2.011-3.601-4.395-4.768-7.151c-1.167-2.756-1.75-5.723-1.75-8.901c0-3.178,0.583-6.146,1.75-8.901
		c1.167-2.756,2.755-5.14,4.768-7.152c2.012-2.012,4.395-3.6,7.151-4.767c2.755-1.166,5.742-1.751,8.961-1.751
		c3.461,0,6.508,0.604,9.144,1.811c2.635,1.207,4.978,2.957,7.03,5.25l-5.733,5.552c-1.287-1.488-2.767-2.675-4.435-3.561
		c-1.67-0.884-3.651-1.327-5.944-1.327c-2.013,0-3.904,0.353-5.673,1.056c-1.772,0.704-3.311,1.7-4.617,2.987
		c-1.308,1.289-2.344,2.847-3.108,4.677c-0.764,1.832-1.147,3.873-1.147,6.126c0,2.253,0.383,4.295,1.147,6.125
		c0.764,1.831,1.8,3.39,3.108,4.677c1.306,1.288,2.845,2.283,4.617,2.987c1.769,0.705,3.66,1.056,5.673,1.056
		c2.413,0,4.555-0.492,6.427-1.478c1.87-0.986,3.53-2.384,4.978-4.195L227.592,52.505z"/>
	<path style="clip-path:url(#SVGID_2_);fill:#FFFFFF;" d="M252.048,55.583h-0.482c-0.927,1.488-2.174,2.666-3.743,3.53
		c-1.569,0.865-3.36,1.298-5.371,1.298c-3.741,0-6.528-1.147-8.357-3.44c-1.832-2.294-2.746-5.35-2.746-9.173V29.875h7.905v16.958
		c0,2.132,0.473,3.71,1.418,4.736c0.944,1.027,2.323,1.539,4.134,1.539c1.087,0,2.041-0.231,2.866-0.694
		c0.825-0.462,1.529-1.085,2.112-1.871c0.583-0.784,1.027-1.709,1.328-2.775c0.302-1.066,0.454-2.203,0.454-3.41V29.875h7.905v29.57
		h-7.423V55.583z"/>
	<path style="clip-path:url(#SVGID_2_);fill:#FFFFFF;" d="M277.634,60.411c-1.931,0-3.65-0.242-5.159-0.724
		c-1.51-0.483-2.818-1.116-3.923-1.901c-1.107-0.785-2.042-1.69-2.806-2.716c-0.765-1.026-1.348-2.061-1.751-3.108l7.061-3.017
		c0.684,1.529,1.599,2.666,2.746,3.409c1.146,0.746,2.423,1.117,3.832,1.117c1.448,0,2.596-0.261,3.44-0.785
		c0.845-0.522,1.267-1.146,1.267-1.87c0-0.804-0.353-1.458-1.056-1.962c-0.705-0.502-1.922-0.955-3.651-1.357l-4.164-0.906
		c-0.926-0.201-1.881-0.522-2.866-0.965c-0.987-0.442-1.882-1.005-2.686-1.69c-0.805-0.684-1.47-1.509-1.991-2.474
		c-0.523-0.966-0.785-2.092-0.785-3.38c0-1.448,0.311-2.735,0.935-3.862c0.623-1.126,1.479-2.082,2.566-2.867
		c1.086-0.784,2.362-1.387,3.832-1.81c1.468-0.423,3.048-0.633,4.736-0.633c2.817,0,5.331,0.553,7.544,1.659
		c2.212,1.107,3.842,2.867,4.888,5.28l-6.819,2.776c-0.564-1.166-1.388-2.011-2.474-2.534c-1.086-0.522-2.173-0.784-3.259-0.784
		c-1.127,0-2.112,0.231-2.957,0.693c-0.845,0.463-1.268,1.057-1.268,1.781c0,0.684,0.352,1.227,1.057,1.629
		c0.703,0.403,1.659,0.765,2.866,1.086l4.526,1.086c3.018,0.725,5.26,1.881,6.729,3.47c1.468,1.59,2.202,3.47,2.202,5.643
		c0,1.288-0.301,2.515-0.904,3.681c-0.604,1.168-1.459,2.203-2.565,3.108c-1.107,0.906-2.435,1.62-3.983,2.142
		C281.244,60.149,279.525,60.411,277.634,60.411"/>
	<path style="clip-path:url(#SVGID_2_);fill:#FFFFFF;" d="M298.032,36.633h-5.19v-6.759h5.19v-9.052h7.905v9.052h7.242v6.759h-7.242
		v11.816c0,0.705,0.071,1.359,0.211,1.959c0.141,0.602,0.413,1.109,0.816,1.524c0.562,0.664,1.367,0.995,2.414,0.995
		c0.683,0,1.226-0.069,1.629-0.211c0.402-0.14,0.785-0.332,1.146-0.574l2.233,6.94c-0.926,0.443-1.921,0.775-2.987,0.996
		c-1.067,0.221-2.243,0.332-3.53,0.332c-1.489,0-2.827-0.236-4.014-0.708c-1.187-0.472-2.182-1.119-2.987-1.941
		c-1.892-1.847-2.836-4.475-2.836-7.884V36.633z"/>
	<path style="clip-path:url(#SVGID_2_);fill:#FFFFFF;" d="M332.021,28.909c2.293,0,4.395,0.392,6.306,1.177
		c1.91,0.784,3.56,1.87,4.949,3.258c1.388,1.389,2.474,3.048,3.259,4.979c0.784,1.931,1.176,4.043,1.176,6.337
		c0,2.293-0.392,4.405-1.176,6.336c-0.785,1.931-1.871,3.591-3.259,4.979c-1.389,1.387-3.039,2.474-4.949,3.258
		c-1.911,0.785-4.013,1.177-6.306,1.177c-2.294,0-4.396-0.392-6.307-1.177c-1.912-0.784-3.56-1.871-4.948-3.258
		c-1.389-1.388-2.474-3.048-3.259-4.979c-0.784-1.931-1.176-4.043-1.176-6.336c0-2.294,0.392-4.406,1.176-6.337
		c0.785-1.931,1.87-3.59,3.259-4.979c1.388-1.388,3.036-2.474,4.948-3.258C327.625,29.301,329.727,28.909,332.021,28.909
		 M332.021,53.108c1.005,0,1.98-0.19,2.927-0.573c0.945-0.382,1.78-0.935,2.504-1.659c0.724-0.725,1.298-1.609,1.719-2.656
		c0.423-1.046,0.635-2.233,0.635-3.56c0-1.328-0.212-2.514-0.635-3.561c-0.421-1.046-0.995-1.931-1.719-2.656
		c-0.724-0.723-1.559-1.276-2.504-1.659c-0.947-0.382-1.922-0.573-2.927-0.573c-1.047,0-2.032,0.191-2.957,0.573
		c-0.926,0.383-1.751,0.936-2.475,1.659c-0.724,0.725-1.297,1.61-1.719,2.656c-0.423,1.047-0.634,2.233-0.634,3.561
		c0,1.327,0.211,2.514,0.634,3.56c0.422,1.047,0.995,1.931,1.719,2.656c0.724,0.724,1.549,1.277,2.475,1.659
		C329.989,52.918,330.974,53.108,332.021,53.108"/>
	<path style="clip-path:url(#SVGID_2_);fill:#FFFFFF;" d="M352.177,29.875h7.422v3.863h0.483c0.926-1.449,2.182-2.615,3.773-3.501
		c1.589-0.884,3.348-1.327,5.28-1.327c2.252,0,4.143,0.523,5.673,1.569c1.528,1.046,2.615,2.333,3.258,3.862
		c0.925-1.488,2.233-2.765,3.923-3.832c1.689-1.066,3.741-1.599,6.155-1.599c1.81,0,3.38,0.292,4.707,0.875
		c1.328,0.583,2.423,1.398,3.289,2.444c0.865,1.046,1.517,2.303,1.962,3.771c0.442,1.469,0.663,3.069,0.663,4.798v18.647h-7.905
		V42.247c0-4.023-1.651-6.036-4.949-6.036c-1.046,0-1.97,0.232-2.776,0.695c-0.806,0.462-1.478,1.086-2.021,1.87
		c-0.543,0.785-0.966,1.72-1.268,2.807c-0.302,1.086-0.452,2.253-0.452,3.5v14.362h-7.906V42.247c0-4.023-1.73-6.036-5.19-6.036
		c-1.006,0-1.892,0.232-2.654,0.695c-0.766,0.462-1.41,1.086-1.932,1.87c-0.524,0.785-0.927,1.72-1.207,2.807
		c-0.282,1.086-0.423,2.253-0.423,3.5v14.362h-7.905V29.875z"/>
	<path style="clip-path:url(#SVGID_2_);fill:#FFFFFF;" d="M433.285,52.324c-1.37,2.414-3.21,4.366-5.523,5.854
		c-2.314,1.488-5.139,2.233-8.479,2.233c-2.253,0-4.336-0.393-6.245-1.177c-1.913-0.785-3.572-1.88-4.979-3.289
		c-1.409-1.407-2.506-3.067-3.289-4.979c-0.785-1.91-1.177-4.013-1.177-6.306c0-2.132,0.382-4.154,1.147-6.065
		c0.763-1.91,1.83-3.58,3.198-5.008c1.367-1.428,2.986-2.566,4.858-3.41c1.871-0.845,3.932-1.268,6.185-1.268
		c2.374,0,4.485,0.392,6.338,1.177c1.849,0.784,3.398,1.871,4.646,3.259c1.246,1.388,2.192,3.027,2.836,4.918
		c0.643,1.891,0.965,3.944,0.965,6.156v0.724c-0.039,0.241-0.06,0.463-0.06,0.664c-0.041,0.201-0.06,0.422-0.06,0.663h-22.269
		c0.162,1.207,0.493,2.243,0.996,3.108c0.503,0.866,1.125,1.59,1.872,2.173c0.743,0.584,1.557,1.006,2.443,1.267
		c0.885,0.262,1.79,0.392,2.717,0.392c1.809,0,3.307-0.411,4.495-1.237c1.186-0.824,2.122-1.86,2.806-3.107L433.285,52.324z
		 M426.102,40.858c-0.04-0.522-0.211-1.106-0.513-1.75c-0.301-0.644-0.745-1.247-1.328-1.811c-0.583-0.563-1.307-1.025-2.172-1.388
		c-0.866-0.362-1.901-0.543-3.108-0.543c-1.69,0-3.179,0.483-4.466,1.449c-1.287,0.965-2.192,2.314-2.715,4.043H426.102z"/>
	<path style="clip-path:url(#SVGID_2_);fill:#FFFFFF;" d="M438.836,29.875h7.423v4.104h0.483c0.362-0.725,0.845-1.388,1.448-1.992
		c0.603-0.603,1.277-1.129,2.022-1.577c0.744-0.448,1.548-0.81,2.413-1.087c0.866-0.275,1.721-0.413,2.565-0.413
		c1.046,0,1.941,0.111,2.686,0.335c0.744,0.224,1.377,0.514,1.901,0.871l-2.113,7.061c-0.481-0.241-1.016-0.432-1.599-0.573
		c-0.583-0.141-1.297-0.211-2.142-0.211c-1.087,0-2.072,0.213-2.957,0.637c-0.886,0.425-1.64,1.022-2.264,1.79
		c-0.623,0.768-1.106,1.668-1.448,2.7c-0.342,1.031-0.512,2.153-0.512,3.365v14.56h-7.906V29.875z"/>
	<polygon style="clip-path:url(#SVGID_2_);fill:#FFFFFF;" points="206.918,140.346 206.918,90.221 189.269,90.221 189.269,77.161 
		238.333,77.161 238.333,90.221 220.684,90.221 220.684,140.346 	"/>
	<path style="clip-path:url(#SVGID_2_);fill:#FFFFFF;" d="M245.185,77.162h23.825c3.412,0,6.472,0.516,9.178,1.545
		c2.705,1.03,4.986,2.457,6.839,4.279c1.853,1.825,3.265,3.987,4.236,6.487c0.971,2.502,1.456,5.222,1.456,8.163
		c0,2.06-0.339,3.971-1.015,5.735c-0.676,1.765-1.588,3.398-2.736,4.898c-1.146,1.499-2.485,2.823-4.015,3.971
		c-1.53,1.147-3.175,2.104-4.941,2.868v0.794l17.12,24.445h-16.325l-15.974-22.768h-3.883v22.768h-13.765V77.162z M269.01,104.872
		c2.472,0,4.413-0.72,5.825-2.162c1.411-1.442,2.117-3.222,2.117-5.339c0-2.118-0.661-3.897-1.984-5.34
		c-1.324-1.44-3.311-2.162-5.958-2.162h-10.06v15.003H269.01z"/>
	<path style="clip-path:url(#SVGID_2_);fill:#FFFFFF;" d="M321.959,141.758c-3.826,0-7.296-0.604-10.414-1.809
		c-3.118-1.206-5.766-2.986-7.942-5.34c-2.177-2.351-3.854-5.219-5.03-8.603c-1.178-3.383-1.765-7.25-1.765-11.604V77.161h13.766
		v38.123c0,3.882,0.971,7.09,2.912,9.619c1.941,2.529,4.766,3.794,8.473,3.794c3.705,0,6.529-1.265,8.471-3.794
		c1.941-2.529,2.912-5.737,2.912-9.619V77.161h13.766v37.241c0,4.001-0.588,7.677-1.765,11.03c-1.177,3.353-2.854,6.236-5.03,8.648
		c-2.177,2.414-4.825,4.295-7.942,5.648C329.252,141.081,325.781,141.758,321.959,141.758"/>
	<path style="clip-path:url(#SVGID_2_);fill:#FFFFFF;" d="M374.905,141.758c-5.884,0-10.958-1.574-15.223-4.721
		c-4.265-3.147-7.281-7.663-9.045-13.547l12.971-5.117c0.765,3,2.03,5.47,3.796,7.412c1.764,1.941,4.265,2.912,7.501,2.912
		c1.059,0,2.073-0.117,3.044-0.354c0.971-0.233,1.822-0.601,2.559-1.102c0.735-0.499,1.337-1.132,1.808-1.897
		c0.472-0.764,0.707-1.646,0.707-2.647c0-1-0.192-1.927-0.574-2.78c-0.382-0.853-1.015-1.646-1.897-2.383
		c-0.883-0.735-2.06-1.47-3.531-2.205c-1.47-0.736-3.324-1.514-5.558-2.34l-3.883-1.412c-1.648-0.587-3.339-1.397-5.074-2.426
		c-1.737-1.03-3.309-2.279-4.721-3.751c-1.412-1.469-2.559-3.162-3.442-5.074c-0.882-1.911-1.324-4.044-1.324-6.398
		c0-2.528,0.499-4.911,1.5-7.148c1-2.234,2.411-4.161,4.237-5.78c1.822-1.617,4.029-2.897,6.618-3.839
		c2.588-0.94,5.44-1.412,8.56-1.412c3.294,0,6.117,0.428,8.471,1.28c2.353,0.853,4.354,1.941,6.001,3.265
		c1.646,1.324,2.956,2.81,3.927,4.457c0.97,1.648,1.721,3.236,2.25,4.764l-11.913,5.031c-0.649-1.882-1.677-3.397-3.088-4.544
		c-1.412-1.148-3.238-1.722-5.472-1.722c-2.354,0-4.222,0.485-5.603,1.456c-1.383,0.971-2.074,2.222-2.074,3.751
		c0,1.589,0.705,3,2.118,4.236c1.412,1.236,3.911,2.471,7.5,3.706l3.884,1.324c5.352,1.824,9.5,4.266,12.443,7.324
		c2.94,3.06,4.411,7.179,4.411,12.354c0,3.296-0.661,6.149-1.985,8.56c-1.324,2.413-3.031,4.413-5.119,6.001
		c-2.088,1.588-4.442,2.78-7.059,3.575C380.008,141.36,377.433,141.758,374.905,141.758"/>
	<polygon style="clip-path:url(#SVGID_2_);fill:#FFFFFF;" points="447.758,77.162 397.939,77.162 397.939,90.222 415.586,90.222 
		415.586,140.347 429.353,140.347 429.353,90.222 443.849,90.222 	"/>
	<path style="clip-path:url(#SVGID_2_);fill:#FFFFFF;" d="M501.117,123.448c0,5.542-2.03,9.995-6.089,13.356
		c-4.119,3.304-9.12,4.954-15.002,4.954c-5.237,0-9.854-1.53-13.855-4.588c-4.001-3.059-6.765-7.237-8.294-12.532l7.765-3.177
		c0.529,1.884,1.264,3.59,2.206,5.119c0.94,1.53,2.044,2.839,3.31,3.926c1.264,1.089,2.66,1.942,4.19,2.56
		c1.531,0.617,3.148,0.926,4.855,0.926c3.706,0,6.735-0.955,9.089-2.867c2.352-1.912,3.529-4.457,3.529-7.635
		c0-2.647-0.971-4.911-2.911-6.794c-1.824-1.824-5.237-3.588-10.237-5.295c-5.06-1.822-8.207-3.058-9.442-3.706
		c-6.708-3.411-10.059-8.441-10.059-15.09c0-4.647,1.852-8.618,5.559-11.914c3.763-3.294,8.382-4.942,13.855-4.942
		c4.822,0,9,1.237,12.531,3.707c3.529,2.413,5.882,5.443,7.059,9.089l-7.589,3.177c-0.706-2.352-2.105-4.309-4.193-5.868
		c-2.088-1.558-4.632-2.338-7.632-2.338c-3.177,0-5.855,0.879-8.032,2.635c-2.176,1.641-3.264,3.778-3.264,6.414
		c0,2.167,0.852,4.043,2.559,5.624c1.882,1.582,5.97,3.455,12.266,5.623c6.412,2.183,10.986,4.85,13.722,8.006
		C499.75,114.973,501.117,118.849,501.117,123.448"/>
	<path style="clip-path:url(#SVGID_2_);fill:#FFFFFF;" d="M537.121,141.758c-9.354,0-17.179-3.147-23.473-9.443
		c-6.236-6.293-9.354-14.148-9.354-23.561c0-9.412,3.118-17.238,9.354-23.475c6.236-6.352,14.06-9.53,23.473-9.53
		c9.53,0,17.267,3.443,23.209,10.325l-5.825,5.648c-4.53-5.472-10.324-8.206-17.384-8.206c-7.001,0-12.855,2.353-17.561,7.058
		c-4.648,4.649-6.971,10.709-6.971,18.18c0,7.471,2.323,13.532,6.971,18.179c4.706,4.706,10.56,7.059,17.561,7.059
		c7.354,0,13.736-3.088,19.149-9.266l5.913,5.736c-3,3.589-6.678,6.369-11.031,8.339
		C546.798,140.772,542.121,141.758,537.121,141.758"/>
	<path style="clip-path:url(#SVGID_2_);fill:#FFFFFF;" d="M625.631,108.754c0,9.354-3.12,17.179-9.354,23.474
		c-6.296,6.353-14.002,9.53-23.121,9.53c-9.178,0-16.885-3.177-23.119-9.53c-6.238-6.295-9.356-14.12-9.356-23.474
		s3.118-17.178,9.356-23.474c6.234-6.353,13.941-9.53,23.119-9.53c9.177,0,16.884,3.208,23.121,9.619
		C622.511,91.665,625.631,99.459,625.631,108.754 M568.977,108.754c0,7.296,2.294,13.326,6.883,18.09
		c4.647,4.766,10.413,7.148,17.296,7.148s12.62-2.382,17.208-7.148c4.647-4.706,6.971-10.735,6.971-18.09
		c0-7.354-2.324-13.383-6.971-18.09c-4.588-4.766-10.325-7.148-17.208-7.148s-12.649,2.382-17.296,7.148
		C571.271,95.429,568.977,101.46,568.977,108.754"/>
	<path style="clip-path:url(#SVGID_2_);fill:#FFFFFF;" d="M639.985,140.346h-8.119V77.162h21.532c5.472,0,10.133,1.809,13.986,5.427
		c3.854,3.618,5.781,8.075,5.781,13.37c0,4.354-1.427,8.221-4.28,11.604c-2.854,3.384-6.457,5.546-10.81,6.486l-0.176,0.265
		l17.982,26.032h-9.864l-17.031-25.591h-9.001V140.346z M639.985,84.927v22.239h13.06c3.294,0,6.089-1.072,8.383-3.221
		c2.295-2.146,3.442-4.81,3.442-7.986c0-2.941-1.074-5.516-3.221-7.722c-2.148-2.206-4.84-3.31-8.074-3.31H639.985z"/>
	<polygon style="clip-path:url(#SVGID_2_);fill:#FFFFFF;" points="688.242,112.548 706.416,112.548 708.686,104.96 688.242,104.96 
		688.242,84.927 714.68,84.927 717.005,77.162 680.124,77.162 680.124,140.346 717.012,140.346 717.012,132.581 688.242,132.581 	
		"/>
	<path style="clip-path:url(#SVGID_2_);fill:#ED8A22;" d="M155.79,9.471c-0.061-0.428-0.12-0.829-0.173-1.171
		C143.977,5.516,123.159,1.413,97.03,0c35.906,32.892,28.61,81.368,4.417,105.501C129.69,86.91,153.947,51.046,155.79,9.471"/>
	<path style="clip-path:url(#SVGID_2_);fill:#50A145;" d="M78.913,121.08c9.008,4.166,26.444,8.45,45.501,3.775
		c17.855-19.874,26.339-42.92,30.106-63.375C132.605,97.819,101.045,113.905,78.913,121.08"/>
	<path style="clip-path:url(#SVGID_2_);fill:#0795A0;" d="M110.385,138.116c-41.389-6.013-66.131-37.161-72.402-66.832
		c1.015,18.224,12.25,56.02,40.567,85.768c0.022,0.009,0.041,0.019,0.064,0.028C91.027,151.701,101.516,145.259,110.385,138.116"/>
	<path style="clip-path:url(#SVGID_2_);fill:#E24F29;" d="M34.89,51.554c-6.504,2.92-18.231,9.427-30.038,19.741
		c5.939,23.387,18.559,48.838,44.16,68.534C31.646,103.204,32.571,70.935,34.89,51.554"/>
	<path style="clip-path:url(#SVGID_2_);fill:#0578B7;" d="M114.57,39.146C99.903,9.461,57.756-1.883,14.747,5.503
		c-4.556,0.869-8.528,1.73-11.84,2.505c-0.435,0.11-0.869,0.225-1.304,0.339c-0.875,5.67-3.012,23.196-0.197,44.84
		C39.286,34.932,80.101,32.16,114.57,39.146"/>
</g>
</svg>
