<?xml version="1.0" encoding="utf-8"?>
<!-- Generator: Adobe Illustrator 17.0.0, SVG Export Plug-In . SVG Version: 6.00 Build 0)  -->
<!DOCTYPE svg PUBLIC "-//W3C//DTD SVG 1.1//EN" "http://www.w3.org/Graphics/SVG/1.1/DTD/svg11.dtd">
<svg version="1.1" id="iconmonstr" xmlns="http://www.w3.org/2000/svg" xmlns:xlink="http://www.w3.org/1999/xlink" x="0px" y="0px"
	 width="24px" height="24px" viewBox="0 0 24 24" enable-background="new 0 0 24 24" xml:space="preserve">
<path id="rocket-13" fill="#0E253A" d="M23.948,0.043C23.535,0.014,23.131,0,22.734,0C14.134,0,9.237,6.557,7.456,11.833
	l4.727,4.727C17.611,14.615,24,9.9,24,1.392C24,0.952,23.983,0.502,23.948,0.043z M12.671,14.22l-2.883-2.882
	c1.221-2.859,4.691-8.945,12.199-9.32C21.736,7.792,17.946,11.949,12.671,14.22z M18.142,15.758
	c-0.547,0.373-1.09,0.711-1.628,1.011c-0.187,0.892-0.662,1.842-1.351,2.653c-0.002-0.577-0.162-1.157-0.443-1.739
	c-0.495,0.225-0.966,0.419-1.414,0.589c0.66,1.709-0.012,2.971-0.915,4.154c1.296-0.099,2.656-0.732,3.728-1.806
	C17.274,19.465,18.086,17.798,18.142,15.758z M6.322,9.289C5.743,9.009,5.164,8.851,4.59,8.848c0.803-0.681,1.744-1.153,2.626-1.345
	C7.53,6.951,7.883,6.406,8.255,5.87C6.216,5.925,4.547,6.737,3.391,7.893c-1.071,1.071-1.706,2.433-1.804,3.727
	c1.184-0.904,2.446-1.576,4.155-0.914C5.915,10.236,6.108,9.763,6.322,9.289z M14.06,9.952c-0.391-0.391-0.391-1.024,0-1.414
	c0.391-0.391,1.023-0.391,1.414,0c0.391,0.392,0.391,1.024,0,1.415C15.083,10.343,14.45,10.343,14.06,9.952z M19.009,5.002
	c-0.78-0.78-2.047-0.78-2.828,0c-0.781,0.781-0.781,2.049,0,2.829c0.781,0.781,2.048,0.781,2.829,0
	C19.79,7.05,19.79,5.783,19.009,5.002z M17.101,6.912c-0.273-0.273-0.273-0.718,0-0.99c0.272-0.273,0.717-0.273,0.99,0
	c0.273,0.272,0.272,0.717,0,0.99C17.817,7.184,17.373,7.184,17.101,6.912z M10.354,17.563C8.862,21.372,4.551,23.77,0,24
	c0.219-4.289,2.657-8.676,6.64-10.153l0.805,0.806c-4.331,2.755-4.653,5.346-4.665,6.575c1.268-0.015,4.054-0.344,6.778-4.464
	L10.354,17.563z"/>
</svg>
