<?xml version="1.0" encoding="iso-8859-1"?>
<!-- Generator: Adobe Illustrator 17.0.0, SVG Export Plug-In . SVG Version: 6.00 Build 0)  -->
<!DOCTYPE svg PUBLIC "-//W3C//DTD SVG 1.1//EN" "http://www.w3.org/Graphics/SVG/1.1/DTD/svg11.dtd">
<svg version="1.1" id="Layer_1" xmlns="http://www.w3.org/2000/svg" xmlns:xlink="http://www.w3.org/1999/xlink" x="0px" y="0px"
	 width="13.758px" height="24px" viewBox="0 0 13.758 24" style="enable-background:new 0 0 13.758 24;" xml:space="preserve">
<g>
	<defs>
		<rect id="SVGID_1_" width="13.758" height="24"/>
	</defs>
	<clipPath id="SVGID_2_">
		<use xlink:href="#SVGID_1_"  style="overflow:visible;"/>
	</clipPath>
	<path style="clip-path:url(#SVGID_2_);fill:#FFFFFF;" d="M9.481,21.499C9.481,22.88,8.365,24,6.981,24
		c-1.378,0-2.499-1.12-2.499-2.501c0-1.38,1.121-2.499,2.499-2.499C8.365,19,9.481,20.119,9.481,21.499 M7.061,0
		C3.032,0,0,2.693,0,8h3.956c0-2.304,0.906-4.189,3.024-4.189c1.248,0,2.57,0.827,2.684,2.411c0.122,1.665-0.767,2.511-1.892,3.582
		C4.847,12.584,4.956,13.853,4.956,17h3.942c0-1.452-0.157-2.508,1.838-4.659c1.332-1.436,2.988-3.222,3.022-5.944
		C13.806,2.435,11.007,0,7.061,0"/>
</g>
</svg>
