<?xml version="1.0" encoding="utf-8"?>
<!-- Generator: Adobe Illustrator 17.0.0, SVG Export Plug-In . SVG Version: 6.00 Build 0)  -->
<!DOCTYPE svg PUBLIC "-//W3C//DTD SVG 1.1//EN" "http://www.w3.org/Graphics/SVG/1.1/DTD/svg11.dtd">
<svg version="1.1" id="Layer_1" xmlns="http://www.w3.org/2000/svg" xmlns:xlink="http://www.w3.org/1999/xlink" x="0px" y="0px"
	 width="24px" height="24px" viewBox="0 0 24 24" enable-background="new 0 0 24 24" xml:space="preserve">
<g>
	<defs>
		<rect id="SVGID_1_" width="24" height="24"/>
	</defs>
	<clipPath id="SVGID_2_">
		<use xlink:href="#SVGID_1_"  overflow="visible"/>
	</clipPath>
	<path clip-path="url(#SVGID_2_)" fill="#ACACAC" d="M23.995,24H22c0-3.104,0.119-3.551-1.761-3.985
		c-2.877-0.665-5.594-1.292-6.584-3.458c-0.361-0.792-0.6-2.096,0.31-3.815c2.042-3.857,2.553-7.165,1.403-9.075
		C14.027,1.437,9.955,1.425,8.601,3.7c-1.154,1.937-0.634,5.227,1.424,9.025c0.93,1.712,0.698,3.02,0.338,3.815
		c-0.982,2.179-3.675,2.8-6.525,3.457C1.875,20.449,2,20.865,2,24H0.005C0.005,23.561,0,23.147,0,22.76
		c0-2.521,0.199-3.976,3.178-4.664c3.365-0.778,6.687-1.473,5.089-4.418C3.535,4.949,6.918,0,12,0c4.983,0,8.451,4.766,3.732,13.678
		c-1.55,2.928,1.651,3.624,5.09,4.418C23.801,18.784,24,20.239,24,22.76C24,23.147,23.995,23.561,23.995,24"/>
</g>
</svg>
