<?xml version="1.0" encoding="utf-8"?>
<!-- Generator: Adobe Illustrator 16.0.0, SVG Export Plug-In . SVG Version: 6.00 Build 0)  -->
<!DOCTYPE svg PUBLIC "-//W3C//DTD SVG 1.1//EN" "http://www.w3.org/Graphics/SVG/1.1/DTD/svg11.dtd">
<svg version="1.1" id="Layer_1" xmlns="http://www.w3.org/2000/svg" xmlns:xlink="http://www.w3.org/1999/xlink" x="0px" y="0px"
	 width="1543.13px" height="250.693px" viewBox="0 0 1543.13 250.693" enable-background="new 0 0 1543.13 250.693"
	 xml:space="preserve">
<polygon fill="#FA8D29" points="779.819,174.068 755.99,174.068 755.99,90.351 716.484,156.978 678.545,89.724 678.545,174.068 
	654.715,174.068 654.715,48.652 682.151,48.652 716.954,110.889 753.325,48.652 779.819,48.652 "/>
<g>
	<defs>
		<rect id="SVGID_1_" width="1543.128" height="250.693"/>
	</defs>
	<clipPath id="SVGID_2_">
		<use xlink:href="#SVGID_1_"  overflow="visible"/>
	</clipPath>
	<path clip-path="url(#SVGID_2_)" fill="#FA8D29" d="M893.791,128.603c0,1.466-0.079,2.979-0.236,4.548
		c-0.157,1.567-0.34,3.189-0.548,4.858h-72.429c0.836,2.615,2.012,5.095,3.526,7.447c1.516,2.352,3.371,4.389,5.566,6.113
		c2.195,1.727,4.676,3.085,7.446,4.076c2.769,0.996,5.824,1.489,9.172,1.489c4.076,0,8.151-0.704,12.228-2.114
		c4.076-1.413,7.47-3.318,10.19-5.723l14.266,14.266c-6.27,4.703-12.412,8.021-18.42,9.954c-6.012,1.933-12.361,2.901-19.048,2.901
		c-6.795,0-13.146-1.255-19.048-3.763c-5.905-2.51-11.027-5.902-15.363-10.189c-4.338-4.284-7.76-9.33-10.269-15.129
		c-2.509-5.8-3.764-11.995-3.764-18.578c0-6.584,1.255-12.776,3.764-18.577c2.509-5.8,5.958-10.842,10.348-15.129
		c4.389-4.284,9.507-7.682,15.363-10.19c5.852-2.507,12.122-3.762,18.812-3.762c6.374,0,12.488,1.175,18.343,3.527
		c5.853,2.351,11.024,5.619,15.52,9.798c4.493,4.181,8.048,9.17,10.66,14.973C892.48,115.201,893.791,121.603,893.791,128.603
		 M870.118,119.824c-1.779-5.745-4.938-10.37-9.485-13.874c-4.545-3.499-9.696-5.25-15.442-5.25c-5.643,0-10.714,1.751-15.207,5.25
		c-4.493,3.504-7.629,8.129-9.405,13.874H870.118z"/>
	<path clip-path="url(#SVGID_2_)" fill="#FA8D29" d="M974.371,148.671c0,4.495-1.051,8.493-3.144,11.991
		c-2.097,3.504-4.817,6.428-8.171,8.779c-3.353,2.352-7.124,4.131-11.316,5.331c-4.19,1.199-8.326,1.802-12.407,1.802
		c-6.917,0-13.281-1.28-19.096-3.841c-5.812-2.559-10.917-6.662-15.317-12.305l13.638-13.796c2.719,3.448,5.853,6.142,9.406,8.074
		c3.553,1.935,7.369,2.898,11.444,2.898c3.554,0,6.506-0.65,8.858-1.96c2.351-1.306,3.53-3.266,3.53-5.878
		c0-2.716-1.677-4.989-5.021-6.819c-3.343-1.827-8.047-3.632-14.109-5.408c-3.555-1.044-7.002-2.377-10.346-3.998
		c-3.348-1.619-6.324-3.606-8.935-5.958c-2.616-2.352-4.704-5.04-6.272-8.072c-1.566-3.031-2.351-6.53-2.351-10.506
		c0-4.39,1.021-8.332,3.064-11.836c2.045-3.498,4.711-6.428,8.014-8.779c3.298-2.352,7.042-4.154,11.232-5.408
		c4.192-1.252,8.434-1.88,12.73-1.88c13.824,0,25.139,5.227,33.938,15.675l-13.481,13.641c-2.617-3.24-5.593-5.803-8.937-7.683
		c-3.349-1.881-7.003-2.82-10.973-2.82c-1.359,0-2.801,0.183-4.312,0.547c-1.517,0.369-2.927,0.889-4.232,1.568
		c-1.309,0.681-2.378,1.567-3.217,2.666c-0.838,1.097-1.255,2.327-1.255,3.684c0,2.404,1.597,4.495,4.784,6.27
		c3.188,1.779,7.76,3.553,13.719,5.331c3.864,1.152,7.522,2.612,10.972,4.389c3.45,1.777,6.482,3.84,9.098,6.191
		c2.608,2.352,4.673,5.018,6.188,7.996C973.612,141.539,974.371,144.909,974.371,148.671"/>
	<path clip-path="url(#SVGID_2_)" fill="#FA8D29" d="M1054.794,148.671c0,4.495-1.05,8.493-3.146,11.991
		c-2.095,3.504-4.819,6.428-8.171,8.779c-3.351,2.352-7.123,4.131-11.312,5.331c-4.191,1.199-8.327,1.802-12.411,1.802
		c-6.914,0-13.279-1.28-19.093-3.841c-5.814-2.559-10.92-6.662-15.318-12.305l13.637-13.796c2.719,3.448,5.854,6.142,9.408,8.074
		c3.551,1.935,7.368,2.898,11.444,2.898c3.551,0,6.505-0.65,8.856-1.96c2.352-1.306,3.529-3.266,3.529-5.878
		c0-2.716-1.674-4.989-5.019-6.819c-3.344-1.827-8.049-3.632-14.108-5.408c-3.555-1.044-7.003-2.377-10.347-3.998
		c-3.348-1.619-6.326-3.606-8.937-5.958c-2.613-2.352-4.703-5.04-6.27-8.072c-1.568-3.031-2.352-6.53-2.352-10.506
		c0-4.39,1.021-8.332,3.064-11.836c2.043-3.498,4.711-6.428,8.012-8.779c3.3-2.352,7.045-4.154,11.236-5.408
		c4.188-1.252,8.43-1.88,12.727-1.88c13.827,0,25.14,5.227,33.939,15.675l-13.482,13.641c-2.615-3.24-5.592-5.803-8.938-7.683
		c-3.346-1.881-7.003-2.82-10.973-2.82c-1.359,0-2.798,0.183-4.312,0.547c-1.517,0.369-2.927,0.889-4.231,1.568
		c-1.31,0.681-2.379,1.567-3.215,2.666c-0.838,1.097-1.255,2.327-1.255,3.684c0,2.404,1.594,4.495,4.784,6.27
		c3.185,1.779,7.757,3.553,13.716,5.331c3.864,1.152,7.523,2.612,10.974,4.389c3.449,1.777,6.479,3.84,9.093,6.191
		c2.611,2.352,4.677,5.018,6.193,7.996C1054.032,141.539,1054.794,144.909,1054.794,148.671"/>
	<path clip-path="url(#SVGID_2_)" fill="#FA8D29" d="M1162.335,128.603c0,1.466-0.077,2.979-0.235,4.548
		c-0.157,1.567-0.342,3.189-0.548,4.858h-72.429c0.835,2.615,2.01,5.095,3.527,7.447c1.515,2.352,3.371,4.389,5.565,6.113
		c2.196,1.727,4.676,3.085,7.446,4.076c2.769,0.996,5.824,1.489,9.171,1.489c4.075,0,8.15-0.704,12.227-2.114
		c4.079-1.413,7.472-3.318,10.193-5.723l14.265,14.266c-6.271,4.703-12.414,8.021-18.421,9.954
		c-6.011,1.933-12.362,2.901-19.047,2.901c-6.794,0-13.145-1.255-19.047-3.763c-5.908-2.51-11.028-5.902-15.364-10.189
		c-4.337-4.284-7.761-9.33-10.268-15.129c-2.511-5.8-3.764-11.995-3.764-18.578c0-6.584,1.253-12.776,3.764-18.577
		c2.507-5.8,5.955-10.842,10.345-15.129c4.389-4.284,9.509-7.682,15.365-10.19c5.851-2.507,12.122-3.762,18.811-3.762
		c6.375,0,12.488,1.175,18.343,3.527c5.852,2.351,11.026,5.619,15.521,9.798c4.492,4.181,8.047,9.17,10.659,14.973
		C1161.026,115.201,1162.335,121.603,1162.335,128.603 M1138.663,119.824c-1.779-5.745-4.939-10.37-9.484-13.874
		c-4.548-3.499-9.696-5.25-15.443-5.25c-5.644,0-10.715,1.751-15.207,5.25c-4.495,3.504-7.63,8.129-9.405,13.874H1138.663z"/>
	<path clip-path="url(#SVGID_2_)" fill="#FA8D29" d="M1258.906,174.068h-22.575v-54.086c0-3.237-0.5-6.086-1.496-8.543
		c-0.996-2.455-2.334-4.493-4.017-6.114c-1.679-1.621-3.597-2.823-5.746-3.607c-2.151-0.783-4.383-1.176-6.688-1.176
		c-3.464,0-6.877,0.602-10.236,1.804c-3.356,1.202-6.398,3.11-9.128,5.722v66h-22.574V83.455h22.574l0.156,6.741
		c1.358-1.357,3.029-2.612,5.018-3.762c1.984-1.149,4.048-2.118,6.191-2.901c2.14-0.783,4.336-1.383,6.585-1.802
		c2.247-0.417,4.415-0.628,6.505-0.628c4.6,0,9.017,0.733,13.247,2.194c4.234,1.465,7.996,3.711,11.289,6.741
		c3.291,3.034,5.931,6.952,7.916,11.759c1.985,4.808,2.979,10.502,2.979,17.088V174.068z"/>
	<path clip-path="url(#SVGID_2_)" fill="#FA8D29" d="M1359.392,101.327h-9.562c2.402,4.703,3.605,9.718,3.605,15.049
		c0,4.076-0.76,8.023-2.272,11.836c-1.517,3.817-3.686,7.291-6.505,10.426c-2.824,3.134-6.247,5.8-10.271,7.996
		c-4.022,2.193-8.543,3.659-13.56,4.39c-3.448,0.524-6.036,1.333-7.761,2.43s-2.588,2.192-2.588,3.292
		c0,1.098,0.863,2.116,2.588,3.058c1.725,0.94,4.313,1.565,7.761,1.88c11.703,1.046,20.772,3.973,27.201,8.779
		c6.428,4.806,9.64,11.184,9.64,19.127c0,4.075-0.989,7.838-2.969,11.286c-1.979,3.451-4.817,6.428-8.512,8.938
		c-3.695,2.507-8.148,4.439-13.355,5.8c-5.208,1.357-11.036,2.038-17.492,2.038c-6.562,0-12.473-0.681-17.728-2.038
		c-5.262-1.36-9.767-3.268-13.514-5.723c-3.747-2.457-6.61-5.408-8.591-8.856c-1.979-3.448-2.966-7.266-2.966-11.444
		c0-6.272,1.789-11.522,5.368-15.757c3.579-4.231,9.412-7.392,17.503-9.484c-2.507-0.941-4.313-2.219-5.408-3.84
		c-1.097-1.619-1.594-3.266-1.489-4.939c0.104-1.669,0.81-3.265,2.116-4.781c1.305-1.513,3.163-2.69,5.572-3.526
		c-2.739-1.255-5.341-2.873-7.816-4.861c-2.474-1.982-4.711-4.284-6.709-6.896c-2-2.612-3.578-5.539-4.735-8.779
		c-1.159-3.238-1.736-6.688-1.736-10.348c0-4.912,1.044-9.51,3.134-13.796c2.091-4.284,4.913-8.019,8.466-11.209
		c3.555-3.187,7.684-5.694,12.387-7.524c4.702-1.827,9.664-2.743,14.893-2.743c5.12,0,9.876,0.783,14.265,2.351h31.041V101.327z
		 M1335.092,189.588c0-3.659-1.849-6.325-5.541-7.996c-3.697-1.672-8.461-2.508-14.288-2.508c-6.247,0-11.169,0.886-14.76,2.665
		c-3.591,1.774-5.386,4.39-5.386,7.839c0,3.551,1.875,6.217,5.622,7.996c3.747,1.774,8.589,2.662,14.523,2.662
		c6.034,0,10.851-0.86,14.441-2.585C1333.296,195.937,1335.092,193.245,1335.092,189.588 M1330.861,116.375
		c0-2.297-0.441-4.439-1.32-6.428c-0.883-1.982-2.073-3.734-3.572-5.25c-1.503-1.513-3.262-2.718-5.283-3.606
		c-2.017-0.887-4.166-1.333-6.441-1.333c-2.279,0-4.4,0.446-6.367,1.333c-1.97,0.888-3.704,2.093-5.203,3.606
		c-1.5,1.516-2.693,3.268-3.572,5.25c-0.881,1.989-1.318,4.131-1.318,6.428c0,2.302,0.438,4.468,1.318,6.508
		c0.879,2.038,2.072,3.814,3.572,5.328c1.499,1.516,3.233,2.721,5.203,3.606c1.967,0.889,4.088,1.333,6.367,1.333
		c2.275,0,4.425-0.444,6.441-1.333c2.021-0.886,3.78-2.091,5.283-3.606c1.499-1.514,2.689-3.29,3.572-5.328
		C1330.42,120.843,1330.861,118.677,1330.861,116.375"/>
	<path clip-path="url(#SVGID_2_)" fill="#FA8D29" d="M1463.96,128.603c0,1.466-0.078,2.979-0.236,4.548
		c-0.156,1.567-0.341,3.189-0.547,4.858h-72.43c0.836,2.615,2.011,5.095,3.528,7.447c1.514,2.352,3.37,4.389,5.564,6.113
		c2.195,1.727,4.676,3.085,7.447,4.076c2.768,0.996,5.824,1.489,9.17,1.489c4.076,0,8.151-0.704,12.227-2.114
		c4.08-1.413,7.472-3.318,10.193-5.723l14.265,14.266c-6.271,4.703-12.413,8.021-18.421,9.954
		c-6.011,1.933-12.361,2.901-19.046,2.901c-6.794,0-13.146-1.255-19.047-3.763c-5.908-2.51-11.028-5.902-15.365-10.189
		c-4.337-4.284-7.76-9.33-10.269-15.129c-2.51-5.8-3.762-11.995-3.762-18.578c0-6.584,1.252-12.776,3.762-18.577
		c2.509-5.8,5.957-10.842,10.347-15.129c4.389-4.284,9.509-7.682,15.364-10.19c5.851-2.507,12.123-3.762,18.812-3.762
		c6.374,0,12.488,1.175,18.343,3.527c5.851,2.351,11.026,5.619,15.521,9.798c4.492,4.181,8.046,9.17,10.659,14.973
		C1462.651,115.201,1463.96,121.603,1463.96,128.603 M1440.288,119.824c-1.78-5.745-4.939-10.37-9.484-13.874
		c-4.548-3.499-9.696-5.25-15.444-5.25c-5.644,0-10.714,1.751-15.206,5.25c-4.495,3.504-7.63,8.129-9.406,13.874H1440.288z"/>
	<path clip-path="url(#SVGID_2_)" fill="#FA8D29" d="M1543.128,92.861l-12.069,19.125c-2.197-2.402-4.625-4.518-7.291-6.35
		c-2.665-1.827-5.356-2.743-8.075-2.743c-1.462,0-3.056,0.341-4.78,1.019c-1.724,0.682-3.346,1.804-4.858,3.371
		c-1.517,1.568-2.798,3.634-3.843,6.194c-1.045,2.563-1.565,5.722-1.565,9.485v51.106h-22.577V83.455h22.577v9.72
		c2.714-3.868,5.721-6.844,9.012-8.937c3.292-2.088,6.978-3.135,11.054-3.135c3.971,0,7.862,1.071,11.681,3.213
		C1536.203,86.459,1539.781,89.307,1543.128,92.861"/>
	<path clip-path="url(#SVGID_2_)" fill="#012639" d="M316.882,174.389c-5.847-5.707-10.5-12.501-13.825-20.189
		c-0.44-1.018-0.85-2.048-1.233-3.088h-38.639V48.652h-24.943v126.141h79.063C317.165,174.658,317.022,174.526,316.882,174.389"/>
	<path clip-path="url(#SVGID_2_)" fill="#012639" d="M408.911,129.167c0,6.843-1.264,13.183-3.79,19.023
		c-2.525,5.842-5.998,10.894-10.419,15.156c-4.421,4.263-9.606,7.632-15.55,10.104c-5.948,2.472-12.29,3.71-19.025,3.71
		c-6.736,0-13.051-1.238-18.944-3.71c-5.896-2.472-11.051-5.865-15.472-10.183c-4.42-4.314-7.893-9.394-10.42-15.235
		c-2.526-5.841-3.788-12.129-3.788-18.865c0-6.631,1.287-12.867,3.867-18.708c2.578-5.842,6.078-10.945,10.499-15.314
		c4.421-4.367,9.576-7.788,15.472-10.262c5.893-2.472,12.156-3.71,18.786-3.71c6.735,0,13.077,1.238,19.025,3.71
		c5.944,2.474,11.129,5.842,15.55,10.104c4.421,4.263,7.894,9.342,10.419,15.235C407.647,116.118,408.911,122.434,408.911,129.167
		 M386.177,129.167c0-3.893-0.684-7.523-2.047-10.894c-1.365-3.367-3.227-6.315-5.588-8.84c-2.361-2.527-5.116-4.5-8.263-5.921
		c-3.148-1.42-6.505-2.131-10.073-2.131c-3.567,0-6.926,0.711-10.073,2.131c-3.148,1.421-5.904,3.394-8.265,5.921
		c-2.36,2.525-4.223,5.473-5.587,8.84c-1.364,3.371-2.044,7.001-2.044,10.894c0,3.895,0.68,7.525,2.044,10.893
		c1.364,3.37,3.227,6.315,5.587,8.841c2.361,2.526,5.117,4.5,8.265,5.921c3.147,1.421,6.506,2.131,10.073,2.131
		c3.568,0,6.925-0.71,10.073-2.131c3.147-1.421,5.902-3.395,8.263-5.921c2.361-2.525,4.223-5.471,5.588-8.841
		C385.493,136.693,386.177,133.062,386.177,129.167"/>
	<path clip-path="url(#SVGID_2_)" fill="#012639" d="M503.792,161.058c-4.633,5.264-10.21,9.263-16.735,11.998
		c-6.527,2.735-13.367,4.104-20.524,4.104c-6.63,0-12.891-1.211-18.779-3.631c-5.891-2.42-11.004-5.763-15.341-10.025
		c-4.336-4.263-7.76-9.339-10.269-15.234c-2.509-5.893-3.762-12.26-3.762-19.103c0-6.734,1.253-13.024,3.762-18.866
		c2.509-5.842,5.905-10.918,10.192-15.235c4.286-4.314,9.372-7.708,15.26-10.183c5.888-2.471,12.201-3.71,18.937-3.71
		c6.947,0,13.551,1.264,19.814,3.789c6.26,2.527,11.707,6.369,16.34,11.525l-17.697,12.856c-1.79-1.844-3.811-3.445-6.063-4.805
		c-3.316-1.998-7.342-2.999-12.077-2.999c-3.474,0-6.765,0.738-9.868,2.21c-3.106,1.476-5.841,3.449-8.21,5.921
		c-2.367,2.474-4.237,5.395-5.604,8.762c-1.369,3.369-2.052,6.946-2.052,10.735c0,3.789,0.683,7.368,2.052,10.735
		c1.367,3.369,3.209,6.29,5.526,8.762c2.314,2.475,5.052,4.447,8.209,5.92c3.158,1.476,6.473,2.21,9.947,2.21
		c4.523,0,8.628-1.077,12.314-3.235c2.612-1.53,4.856-3.365,6.728-5.506L503.792,161.058z"/>
	<path clip-path="url(#SVGID_2_)" fill="#012639" d="M588.861,174.792h-22.734v-4.894c-4.001,2.737-8.236,4.633-12.708,5.683
		c-4.475,1.051-9.079,1.579-13.814,1.579c-4.421,0-8.422-0.658-11.999-1.974c-3.58-1.314-6.685-3.209-9.314-5.683
		c-2.633-2.472-4.658-5.393-6.079-8.763c-1.42-3.367-2.131-7.104-2.131-11.209c0-5.155,1.13-9.654,3.395-13.498
		c2.261-3.841,5.34-7.05,9.235-9.63c3.893-2.578,8.446-4.5,13.656-5.763s10.814-1.895,16.813-1.895h13.104
		c0-5.368-1.737-9.629-5.21-12.788c-3.473-3.157-8.473-4.735-14.998-4.735c-3.158,0-6.421,0.579-9.788,1.736
		c-2.527,0.87-5.053,2.271-7.579,4.204l-15.944-11.466c4.84-4.63,10.444-8.209,16.813-10.736c6.367-2.525,12.919-3.789,19.655-3.789
		c6.316,0,11.937,1.002,16.869,3c4.928,2,8.909,4.578,11.941,7.736c3.972,4.002,6.767,8.473,8.387,13.42
		c1.618,4.948,2.43,11.262,2.43,18.944V174.792z M566.127,152.059v-16.893h-10.419c-3.158,0-6.133,0.212-8.92,0.632
		c-2.79,0.421-5.21,1.132-7.263,2.131c-2.052,1.002-3.685,2.289-4.894,3.868c-1.211,1.579-1.816,3.473-1.816,5.683
		c0,3.158,1.237,5.738,3.711,7.736c2.472,2.001,5.656,3,9.551,3c3.367,0,6.71-0.525,10.025-1.579
		C559.418,155.586,562.758,154.059,566.127,152.059"/>
	<rect x="608.796" y="48.652" clip-path="url(#SVGID_2_)" fill="#012639" width="23.208" height="126.141"/>
	<path clip-path="url(#SVGID_2_)" fill="#FA8D29" d="M87.579,31.27c-31.757,0-57.594,24.906-57.594,55.52
		c0,23.007,14.306,54.891,30.817,73.888l0.101-7.46l0.213-15.771l15.576,2.478c3.119,0.496,6.314,0.747,9.494,0.747
		c32.507,0,58.091-23.83,58.274-54.259c-0.088-14.716-5.964-28.524-16.552-38.889C117.203,37.042,102.88,31.27,87.579,31.27"/>
	<path clip-path="url(#SVGID_2_)" fill="#012639" d="M85.967,0.002C40.594,0.32,0,37.139,0,82.514
		c0,78.457,86.56,168.179,86.56,168.179s86.604-90.594,86.604-168.045C173.164,36.805,131.885-0.321,85.967,0.002 M86.187,154.32
		c-3.913,0-7.802-0.307-11.638-0.917l-0.467,34.53C45.379,176.333,16.338,122.656,16.338,86.79
		c0-38.139,31.979-69.167,71.242-69.167c39.149,0,70.345,30.802,70.528,68.79C157.925,124.641,125.643,154.32,86.187,154.32"/>
	<path clip-path="url(#SVGID_2_)" fill="#FFFFFF" d="M71.281,84.317c0,5.557-4.505,10.062-10.062,10.062
		c-5.557,0-10.062-4.505-10.062-10.062c0-5.558,4.505-10.063,10.062-10.063C66.776,74.254,71.281,78.759,71.281,84.317"/>
	<path clip-path="url(#SVGID_2_)" fill="#FFFFFF" d="M97.489,84.317c0,5.557-4.505,10.062-10.062,10.062
		c-5.557,0-10.062-4.505-10.062-10.062c0-5.558,4.505-10.063,10.062-10.063C92.984,74.254,97.489,78.759,97.489,84.317"/>
	<path clip-path="url(#SVGID_2_)" fill="#FFFFFF" d="M123.697,84.317c0,5.557-4.505,10.062-10.062,10.062
		c-5.557,0-10.062-4.505-10.062-10.062c0-5.558,4.505-10.063,10.062-10.063C119.192,74.254,123.697,78.759,123.697,84.317"/>
</g>
</svg>
