<?xml version="1.0" encoding="utf-8"?>
<!-- Generator: Adobe Illustrator 16.0.0, SVG Export Plug-In . SVG Version: 6.00 Build 0)  -->
<!DOCTYPE svg PUBLIC "-//W3C//DTD SVG 1.1//EN" "http://www.w3.org/Graphics/SVG/1.1/DTD/svg11.dtd">
<svg version="1.1" id="Layer_1" xmlns="http://www.w3.org/2000/svg" xmlns:xlink="http://www.w3.org/1999/xlink" x="0px" y="0px"
	 width="171.211px" height="106.58px" viewBox="0 0 171.211 106.58" enable-background="new 0 0 171.211 106.58"
	 xml:space="preserve">
<g>
	<defs>
		<rect id="SVGID_1_" width="171.211" height="106.58"/>
	</defs>
	<clipPath id="SVGID_2_">
		<use xlink:href="#SVGID_1_"  overflow="visible"/>
	</clipPath>
	<path clip-path="url(#SVGID_2_)" fill="#FFFFFF" d="M72.237,43.066c-0.02-3.449,2.765-6.262,6.217-6.278l83.572-0.434
		c3.448-0.017,6.26,2.771,6.276,6.218l0.283,54.67c0.02,3.453-2.768,6.265-6.214,6.283l-83.573,0.431
		c-3.451,0.016-6.263-2.767-6.282-6.22L72.237,43.066z"/>
	<path clip-path="url(#SVGID_2_)" fill="#11375A" d="M167.514,104.484c-1.504,1.08-3.274,1.656-5.127,1.665l-83.573,0.431
		c-4.892,0.022-8.894-3.938-8.922-8.829l-0.281-54.67c-0.014-2.866,1.367-5.577,3.698-7.253c1.502-1.08,3.277-1.655,5.133-1.664
		l83.571-0.433c4.893-0.025,8.89,3.937,8.912,8.829l0.285,54.668C171.228,100.095,169.844,102.81,167.514,104.484 M76.373,40.089
		c-0.953,0.686-1.519,1.792-1.511,2.961l0.281,54.672c0.01,1.999,1.645,3.619,3.646,3.608l83.569-0.43
		c1.932-0.013,3.61-1.722,3.603-3.644l-0.284-54.671c-0.008-2-1.641-3.617-3.638-3.607l-83.571,0.433
		C77.707,39.417,76.985,39.65,76.373,40.089"/>
	<path clip-path="url(#SVGID_2_)" fill="#11375A" d="M167.49,104.479c-1.461,1.05-3.239,1.659-5.103,1.671l-83.573,0.43
		c-3.656,0.016-6.996-2.272-8.312-5.692c-0.388-1.015-0.113-2.164,0.693-2.892l32.471-29.257c1.14-1.015,2.739-0.884,3.708,0.191
		c0.971,1.077,0.885,2.736-0.192,3.707l-30.813,27.764c0.653,0.589,1.514,0.934,2.421,0.931l83.569-0.431
		c0.909-0.008,1.773-0.366,2.405-0.952l-31.457-27.772c-1.087-0.96-1.19-2.618-0.232-3.705c0.962-1.099,2.617-1.188,3.704-0.229
		l33.13,29.247c0.816,0.719,1.104,1.864,0.726,2.883C170.009,102.054,168.893,103.471,167.49,104.479"/>
	<path clip-path="url(#SVGID_2_)" fill="#11375A" d="M122.011,85.199c-0.982,0.706-2.341,0.653-3.267-0.165L70.91,42.823
		c-0.816-0.719-0.747-1.799-0.723-2.885C70.328,33.73,120.56,0,120.56,0s50.238,32.426,49.76,39.429
		c-0.073,1.083,0.112,2.161-0.693,2.887l-47.388,42.701C122.165,85.081,122.09,85.143,122.011,85.199 M79.83,43.693l3.236,2.856
		l37.396,33.001l34.49-31.08l6.409-5.626l-0.032-3.867l-40.766,0.215L79.83,39.413V43.693z"/>
	<polygon clip-path="url(#SVGID_2_)" fill="#FFFFFF" points="161.361,42.845 79.831,43.693 79.831,31.574 161.361,31.574 	"/>
	<path clip-path="url(#SVGID_2_)" fill="#11375A" d="M47.398,56.938L11.072,58.59c-1.783,0.081-3.295-1.299-3.376-3.082
		s1.299-3.295,3.082-3.376l36.326-1.653c1.784-0.082,3.295,1.298,3.377,3.082C50.562,55.344,49.182,56.856,47.398,56.938"/>
	<path clip-path="url(#SVGID_2_)" fill="#11375A" d="M48.984,91.793l-36.326,1.653c-1.783,0.081-3.295-1.299-3.376-3.082
		c-0.081-1.783,1.299-3.295,3.082-3.376l36.326-1.653c1.783-0.082,3.295,1.298,3.376,3.082C52.147,90.2,50.768,91.712,48.984,91.793
		"/>
	<path clip-path="url(#SVGID_2_)" fill="#11375A" d="M44.106,74.462L3.379,76.314c-1.783,0.082-3.295-1.299-3.376-3.082
		c-0.082-1.784,1.299-3.295,3.082-3.376l40.727-1.853c1.783-0.082,3.295,1.298,3.376,3.082C47.27,72.868,45.89,74.38,44.106,74.462"
		/>
	<path clip-path="url(#SVGID_2_)" fill="#11375A" d="M152.684,37.354H88.842c-0.968,0-1.752,0.784-1.752,1.751
		c0,0.967,0.784,1.751,1.752,1.751h63.842c0.968,0,1.752-0.784,1.752-1.751C154.436,38.138,153.651,37.354,152.684,37.354"/>
	<path clip-path="url(#SVGID_2_)" fill="#11375A" d="M117.658,43.099H88.843c-0.969,0-1.752,0.784-1.752,1.751
		c0,0.968,0.783,1.751,1.752,1.751h28.815c0.968,0,1.751-0.783,1.751-1.751C119.409,43.883,118.626,43.099,117.658,43.099"/>
	<path clip-path="url(#SVGID_2_)" fill="#11375A" d="M152.684,43.099h-28.815c-0.969,0-1.751,0.784-1.751,1.751
		c0,0.968,0.782,1.751,1.751,1.751h28.815c0.968,0,1.752-0.783,1.752-1.751C154.436,43.883,153.651,43.099,152.684,43.099"/>
	<path clip-path="url(#SVGID_2_)" fill="#11375A" d="M129.635,49.087H88.842c-0.968,0-1.752,0.784-1.752,1.751
		c0,0.968,0.784,1.751,1.752,1.751h40.793c0.967,0,1.751-0.783,1.751-1.751C131.386,49.872,130.602,49.087,129.635,49.087"/>
	<path clip-path="url(#SVGID_2_)" fill="#11375A" d="M152.684,49.087h-16.777c-0.968,0-1.751,0.784-1.751,1.751
		c0,0.968,0.783,1.751,1.751,1.751h16.777c0.968,0,1.752-0.783,1.752-1.751C154.436,49.872,153.651,49.087,152.684,49.087"/>
	<path clip-path="url(#SVGID_2_)" fill="#11375A" d="M111.891,55.762h36.934c0.966,0,1.751,0.784,1.751,1.751
		s-0.785,1.751-1.751,1.751h-36.934c-0.968,0-1.751-0.784-1.751-1.751S110.923,55.762,111.891,55.762"/>
	<path clip-path="url(#SVGID_2_)" fill="#11375A" d="M91.432,55.762h14.188c0.967,0,1.751,0.784,1.751,1.751
		s-0.784,1.751-1.751,1.751H91.432c-0.967,0-1.751-0.784-1.751-1.751S90.465,55.762,91.432,55.762"/>
</g>
</svg>
