<?xml version="1.0" encoding="utf-8"?>
<!-- Generator: Adobe Illustrator 17.0.0, SVG Export Plug-In . SVG Version: 6.00 Build 0)  -->
<!DOCTYPE svg PUBLIC "-//W3C//DTD SVG 1.1//EN" "http://www.w3.org/Graphics/SVG/1.1/DTD/svg11.dtd">
<svg version="1.1" id="Layer_1" xmlns="http://www.w3.org/2000/svg" xmlns:xlink="http://www.w3.org/1999/xlink" x="0px" y="0px"
	 width="154.667px" height="220.463px" viewBox="0 0 154.667 220.463" enable-background="new 0 0 154.667 220.463"
	 xml:space="preserve">
<g>
	<g>
		<path fill="#012639" d="M110.457,178.988l-12.453-25.679c-1.303-2.688-0.678-5.788,1.302-7.804l-4.714-9.72
			c-5.506,1.686-11.346,2.599-17.396,2.599c-32.831,0-59.542-26.71-59.542-59.542c0-32.833,26.711-59.542,59.542-59.542
			c32.831,0,59.542,26.71,59.542,59.542c0,22.013-12.016,41.259-29.825,51.563l4.48,9.239c2.808-0.307,5.631,1.122,6.934,3.81
			l6.46,13.319c0,0.001,0.001,0.002,0.001,0.002c14.747-24.993,27.203-54.181,27.203-81.481c0-39.603-35.66-71.674-75.327-71.396
			C37.468,4.172,2.399,35.98,2.399,75.177c0,67.776,74.777,145.286,74.777,145.286s16.051-16.795,33.283-41.47
			C110.459,178.991,110.458,178.989,110.457,178.988z"/>
		<path fill="#FA8D29" d="M77.195,30.726c-26.573,0-48.115,21.542-48.115,48.115c0,26.573,21.542,48.115,48.115,48.115
			s48.115-21.542,48.115-48.115C125.31,52.268,103.768,30.726,77.195,30.726z M55.869,111.273
			c-6.189-4.097-11.191-9.946-14.247-16.973l13.909-4.021c1.947,3.666,4.779,6.792,8.232,9.063L55.869,111.273z M52.666,78.842
			c0,0.918,0.075,1.818,0.174,2.71l-13.867,4.009c-3.707-21.074,10.345-41.279,31.424-45.1c2.083-0.378,4.152-0.533,6.205-0.573
			l0.276,14.439C63.5,54.501,52.666,65.424,52.666,78.842z"/>
	</g>
</g>
</svg>
