<?xml version="1.0" encoding="utf-8"?>
<!-- Generator: Adobe Illustrator 17.0.0, SVG Export Plug-In . SVG Version: 6.00 Build 0)  -->
<!DOCTYPE svg PUBLIC "-//W3C//DTD SVG 1.1//EN" "http://www.w3.org/Graphics/SVG/1.1/DTD/svg11.dtd">
<svg version="1.1" id="Layer_1" xmlns="http://www.w3.org/2000/svg" xmlns:xlink="http://www.w3.org/1999/xlink" x="0px" y="0px"
	 width="154.143px" height="233.667px" viewBox="0 0 154.143 233.667" enable-background="new 0 0 154.143 233.667"
	 xml:space="preserve">
<g>
	<g>
		<path fill="#012639" d="M78.816,17.102C39.62,17.377,4.551,49.184,4.551,88.382c0,67.776,74.777,145.286,74.777,145.286
			s74.815-78.262,74.815-145.169C154.143,48.896,118.483,16.824,78.816,17.102z M79.348,151.465c-3.563,0-7.046-0.333-10.438-0.937
			v28.923c-12.685-5.127-25.438-19.775-34.878-37.001c-5.712-12.07-10.237-24.614-12.556-36.983c-1-4.316-1.547-8.805-1.547-13.421
			c0-32.763,26.656-59.419,59.42-59.419c32.762,0,59.417,26.655,59.417,59.419C138.766,124.809,112.11,151.465,79.348,151.465z"/>
		<path fill="#FA8D29" d="M79.347,43.931c-26.573,0-48.115,21.542-48.115,48.115c0,3.638,0.439,7.167,1.204,10.574h-0.037
			l0.383,1.729l0.01-0.023c2.01,10.186,5.805,21.268,11.322,32.98c4.113,7.46,8.758,14.098,13.483,19.418v-21.801
			c6.538,3.324,13.914,5.237,21.751,5.237c26.573,0,48.115-21.542,48.115-48.115S105.921,43.931,79.347,43.931z M57.391,98.632
			c-4.801,0-8.692-3.892-8.692-8.692s3.892-8.692,8.692-8.692c4.801,0,8.692,3.892,8.692,8.692S62.191,98.632,57.391,98.632z
			 M80.031,98.632c-4.801,0-8.692-3.892-8.692-8.692s3.892-8.692,8.692-8.692c4.801,0,8.692,3.892,8.692,8.692
			S84.832,98.632,80.031,98.632z M102.672,98.632c-4.801,0-8.692-3.892-8.692-8.692s3.892-8.692,8.692-8.692
			c4.801,0,8.692,3.892,8.692,8.692S107.473,98.632,102.672,98.632z"/>
	</g>
</g>
</svg>
