<?xml version="1.0" encoding="utf-8"?>
<!-- Generator: Adobe Illustrator 17.0.0, SVG Export Plug-In . SVG Version: 6.00 Build 0)  -->
<!DOCTYPE svg PUBLIC "-//W3C//DTD SVG 1.1//EN" "http://www.w3.org/Graphics/SVG/1.1/DTD/svg11.dtd">
<svg version="1.1" id="Layer_1" xmlns="http://www.w3.org/2000/svg" xmlns:xlink="http://www.w3.org/1999/xlink" x="0px" y="0px"
	 width="513.468px" height="84.11px" viewBox="0 0 513.468 84.11" enable-background="new 0 0 513.468 84.11" xml:space="preserve">
<g>
	<g>
		<g>
			<path fill="#012639" d="M103.567,63.056c-1.827-1.811-3.281-3.967-4.32-6.406c-0.138-0.323-0.266-0.65-0.385-0.98H86.789V23.159
				h-7.794v40.026h24.704C103.655,63.141,103.611,63.099,103.567,63.056z"/>
			<path fill="#012639" d="M132.322,48.707c0,2.171-0.395,4.183-1.184,6.036c-0.789,1.854-1.874,3.456-3.256,4.809
				c-1.381,1.352-3.001,2.422-4.859,3.206c-1.858,0.784-3.84,1.177-5.944,1.177c-2.105,0-4.078-0.393-5.919-1.177
				c-1.842-0.784-3.453-1.861-4.834-3.231c-1.381-1.369-2.466-2.981-3.256-4.834c-0.789-1.854-1.184-3.849-1.184-5.986
				c0-2.104,0.402-4.083,1.209-5.936c0.806-1.854,1.899-3.473,3.28-4.859c1.381-1.385,2.992-2.471,4.834-3.256
				c1.841-0.784,3.798-1.177,5.87-1.177c2.104,0,4.086,0.393,5.944,1.177c1.857,0.785,3.478,1.854,4.859,3.206
				c1.381,1.352,2.466,2.964,3.256,4.834C131.927,44.566,132.322,46.57,132.322,48.707z M125.218,48.707
				c0-1.235-0.214-2.387-0.64-3.457c-0.426-1.068-1.008-2.004-1.746-2.805c-0.738-0.801-1.599-1.428-2.582-1.879
				c-0.984-0.451-2.032-0.676-3.147-0.676c-1.114,0-2.164,0.226-3.148,0.676c-0.984,0.451-1.845,1.077-2.582,1.879
				c-0.738,0.801-1.32,1.737-1.746,2.805c-0.426,1.069-0.639,2.221-0.639,3.457c0,1.236,0.213,2.388,0.639,3.456
				c0.426,1.069,1.008,2.004,1.746,2.805c0.738,0.802,1.599,1.428,2.582,1.879c0.983,0.451,2.033,0.676,3.148,0.676
				c1.115,0,2.164-0.225,3.147-0.676c0.983-0.451,1.844-1.077,2.582-1.879c0.738-0.801,1.319-1.736,1.746-2.805
				C125.005,51.095,125.218,49.943,125.218,48.707z"/>
			<path fill="#012639" d="M161.968,58.826c-1.447,1.67-3.19,2.939-5.229,3.807c-2.039,0.868-4.177,1.303-6.413,1.303
				c-2.072,0-4.028-0.384-5.868-1.152c-1.841-0.768-3.438-1.828-4.793-3.181c-1.355-1.352-2.425-2.963-3.209-4.834
				c-0.784-1.87-1.175-3.89-1.175-6.061c0-2.137,0.392-4.133,1.175-5.986c0.784-1.854,1.845-3.464,3.185-4.834
				c1.339-1.369,2.928-2.446,4.768-3.231c1.84-0.784,3.812-1.177,5.917-1.177c2.171,0,4.234,0.401,6.191,1.202
				c1.956,0.801,3.658,2.021,5.105,3.657l-5.529,4.079c-0.56-0.585-1.191-1.093-1.895-1.524c-1.036-0.634-2.294-0.952-3.774-0.952
				c-1.085,0-2.113,0.234-3.083,0.701c-0.97,0.468-1.825,1.094-2.565,1.879c-0.74,0.785-1.324,1.712-1.751,2.78
				c-0.428,1.069-0.641,2.204-0.641,3.406c0,1.202,0.213,2.338,0.641,3.406c0.427,1.069,1.003,1.996,1.727,2.78
				c0.723,0.785,1.578,1.411,2.565,1.878c0.987,0.468,2.023,0.701,3.108,0.701c1.413,0,2.696-0.342,3.848-1.027
				c0.816-0.485,1.517-1.068,2.102-1.747L161.968,58.826z"/>
			<path fill="#012639" d="M188.549,63.184h-7.103v-1.553c-1.25,0.869-2.574,1.47-3.971,1.803c-1.398,0.333-2.836,0.501-4.316,0.501
				c-1.381,0-2.631-0.209-3.749-0.626c-1.118-0.417-2.089-1.018-2.91-1.803c-0.822-0.784-1.455-1.711-1.899-2.78
				c-0.444-1.068-0.666-2.254-0.666-3.557c0-1.636,0.353-3.064,1.061-4.283c0.707-1.219,1.669-2.237,2.886-3.056
				c1.216-0.818,2.639-1.428,4.267-1.828c1.628-0.401,3.379-0.601,5.253-0.601h4.094c0-1.703-0.543-3.056-1.628-4.058
				c-1.085-1.002-2.648-1.503-4.686-1.503c-0.987,0-2.006,0.184-3.058,0.551c-0.79,0.276-1.579,0.72-2.368,1.334l-4.982-3.638
				c1.512-1.469,3.263-2.605,5.253-3.406c1.989-0.801,4.037-1.202,6.141-1.202c1.973,0,3.73,0.318,5.271,0.952
				c1.54,0.635,2.784,1.453,3.731,2.455c1.241,1.27,2.114,2.689,2.621,4.258c0.506,1.57,0.759,3.574,0.759,6.011V63.184z
				 M181.445,55.971v-5.36h-3.256c-0.987,0-1.916,0.067-2.787,0.2c-0.872,0.134-1.628,0.359-2.269,0.676
				c-0.641,0.318-1.152,0.726-1.529,1.227c-0.378,0.501-0.567,1.102-0.567,1.803c0,1.002,0.386,1.821,1.159,2.455
				c0.772,0.635,1.767,0.952,2.984,0.952c1.052,0,2.096-0.167,3.132-0.501C179.349,57.09,180.392,56.605,181.445,55.971z"/>
			<rect x="194.777" y="23.159" fill="#012639" width="7.251" height="40.026"/>
			<g>
				<path fill="#012639" d="M501.916,29.001v-5.075h-1.867v-0.679h4.491v0.679h-1.874v5.075H501.916z"/>
				<path fill="#012639" d="M505.763,29.001v-5.754h1.129l1.341,4.074c0.124,0.379,0.214,0.663,0.271,0.852
					c0.064-0.209,0.165-0.517,0.301-0.922l1.357-4.003h1.009v5.754h-0.723v-4.816l-1.646,4.816h-0.676l-1.639-4.898v4.898H505.763z"
					/>
			</g>
			<g>
				<path fill="#FA8D29" d="M244.976,43.037c0,2.781-0.469,5.385-1.407,7.814c-0.939,2.429-2.246,4.556-3.92,6.382
					c-1.675,1.826-3.677,3.266-6.005,4.322c-2.329,1.055-4.867,1.583-7.613,1.583h-16.784V22.936h16.784
					c2.746,0,5.284,0.536,7.613,1.608c2.328,1.072,4.33,2.512,6.005,4.322c1.675,1.809,2.981,3.937,3.92,6.382
					C244.507,37.693,244.976,40.29,244.976,43.037z M237.086,42.836c0.033-1.876-0.251-3.651-0.854-5.327
					c-0.602-1.675-1.474-3.141-2.613-4.397c-1.139-1.256-2.538-2.244-4.196-2.965c-1.659-0.72-3.526-1.08-5.603-1.08h-6.784v27.437
					h6.784c2.043,0,3.877-0.343,5.502-1.03c1.625-0.686,3.007-1.641,4.146-2.864c1.139-1.222,2.019-2.663,2.639-4.322
					C236.726,46.629,237.053,44.813,237.086,42.836z"/>
				<path fill="#FA8D29" d="M257.538,29.016h-7.538v-7.538h7.538V29.016z M257.438,63.137h-7.337V34.042h7.337V63.137z"/>
				<path fill="#FA8D29" d="M284.925,37.107l-3.869,6.131c-0.703-0.77-1.483-1.449-2.337-2.035
					c-0.854-0.586-1.717-0.879-2.588-0.879c-0.469,0-0.979,0.109-1.533,0.327c-0.553,0.218-1.072,0.578-1.558,1.08
					c-0.486,0.502-0.897,1.164-1.231,1.985c-0.335,0.821-0.502,1.834-0.502,3.04v16.382h-7.236V34.092h7.236v3.116
					c0.87-1.239,1.834-2.194,2.889-2.864c1.055-0.67,2.237-1.005,3.543-1.005c1.273,0,2.52,0.344,3.743,1.03
					C282.705,35.055,283.853,35.969,284.925,37.107z"/>
				<path fill="#FA8D29" d="M317.488,48.564c0,0.47-0.025,0.955-0.076,1.457c-0.05,0.503-0.109,1.022-0.175,1.558H294.02
					c0.268,0.838,0.645,1.633,1.131,2.387c0.485,0.754,1.08,1.407,1.784,1.96s1.499,0.988,2.387,1.306
					c0.887,0.319,1.868,0.477,2.94,0.477c1.306,0,2.613-0.226,3.919-0.678c1.306-0.452,2.395-1.063,3.266-1.834l4.573,4.573
					c-2.011,1.508-3.979,2.571-5.905,3.191c-1.927,0.62-3.962,0.93-6.105,0.93c-2.179,0-4.213-0.402-6.106-1.206
					c-1.893-0.804-3.535-1.892-4.925-3.267c-1.39-1.373-2.487-2.99-3.291-4.849c-0.804-1.859-1.206-3.844-1.206-5.955
					c0-2.111,0.402-4.095,1.206-5.955c0.804-1.859,1.91-3.475,3.316-4.849c1.407-1.373,3.048-2.462,4.925-3.266
					c1.876-0.804,3.886-1.206,6.03-1.206c2.044,0,4.003,0.377,5.88,1.13c1.876,0.754,3.534,1.801,4.975,3.141
					c1.44,1.34,2.579,2.94,3.417,4.799C317.068,44.268,317.488,46.32,317.488,48.564z M309.9,45.75
					c-0.57-1.842-1.583-3.324-3.04-4.447c-1.457-1.122-3.108-1.684-4.95-1.684c-1.809,0-3.434,0.562-4.875,1.684
					c-1.441,1.123-2.446,2.605-3.015,4.447H309.9z"/>
				<path fill="#FA8D29" d="M348.191,58.765c-1.474,1.676-3.25,2.948-5.327,3.819c-2.078,0.871-4.255,1.306-6.532,1.306
					c-2.111,0-4.104-0.386-5.978-1.156c-1.875-0.77-3.503-1.834-4.884-3.191c-1.38-1.357-2.47-2.973-3.269-4.85
					c-0.799-1.876-1.197-3.902-1.197-6.08c0-2.144,0.399-4.146,1.197-6.005c0.799-1.859,1.88-3.475,3.244-4.849
					c1.364-1.373,2.983-2.454,4.858-3.241c1.874-0.787,3.883-1.181,6.028-1.181c2.211,0,4.313,0.402,6.306,1.206
					c1.993,0.804,3.726,2.027,5.201,3.668l-4.874,4.975c-0.737-0.971-1.633-1.775-2.689-2.412c-1.055-0.636-2.337-0.955-3.844-0.955
					c-1.105,0-2.153,0.235-3.14,0.703c-0.989,0.47-1.86,1.098-2.614,1.885c-0.753,0.788-1.348,1.717-1.784,2.789
					c-0.436,1.073-0.653,2.211-0.653,3.417c0,1.206,0.217,2.345,0.653,3.417c0.435,1.072,1.021,2.002,1.759,2.789
					c0.736,0.787,1.608,1.415,2.613,1.884c1.005,0.47,2.061,0.704,3.166,0.704c1.441,0,2.747-0.343,3.919-1.03
					c1.172-0.686,2.111-1.566,2.815-2.638L348.191,58.765z"/>
				<path fill="#FA8D29" d="M367.939,62.484c-0.737,0.47-1.591,0.82-2.563,1.055c-0.971,0.234-1.943,0.352-2.914,0.352
					c-1.709,0-3.149-0.21-4.322-0.628c-1.173-0.418-2.111-1.063-2.814-1.935c-0.704-0.871-1.215-1.976-1.533-3.317
					c-0.319-1.34-0.478-2.915-0.478-4.724V40.574h-3.818l11.055-15.025v8.492h7.337v6.533h-7.337V53.79
					c0,0.737,0.092,1.34,0.276,1.809c0.184,0.47,0.427,0.838,0.729,1.105c0.301,0.268,0.644,0.452,1.03,0.553
					s0.796,0.151,1.231,0.151c0.569,0,1.256-0.101,2.061-0.302s1.49-0.536,2.06-1.005V62.484z"/>
				<path fill="#FA8D29" d="M402.212,48.615c0,2.178-0.402,4.196-1.206,6.055s-1.91,3.467-3.316,4.824
					c-1.407,1.357-3.058,2.429-4.95,3.216c-1.893,0.787-3.912,1.181-6.056,1.181c-2.144,0-4.154-0.394-6.03-1.181
					c-1.877-0.787-3.517-1.867-4.925-3.241c-1.407-1.373-2.512-2.99-3.316-4.849c-0.804-1.86-1.206-3.861-1.206-6.005
					c0-2.111,0.41-4.095,1.231-5.955c0.82-1.859,1.935-3.484,3.342-4.874c1.407-1.39,3.048-2.479,4.925-3.266
					c1.876-0.787,3.869-1.181,5.979-1.181c2.144,0,4.162,0.394,6.056,1.181c1.892,0.787,3.542,1.859,4.95,3.216
					c1.407,1.357,2.512,2.973,3.316,4.85C401.81,44.461,402.212,46.471,402.212,48.615z M394.975,48.615
					c0-1.239-0.217-2.395-0.652-3.468c-0.434-1.072-1.027-2.01-1.779-2.814c-0.751-0.804-1.628-1.432-2.63-1.884
					c-1.002-0.452-2.07-0.679-3.206-0.679c-1.136,0-2.205,0.226-3.207,0.679c-1.002,0.452-1.879,1.08-2.63,1.884
					c-0.752,0.804-1.344,1.743-1.779,2.814c-0.434,1.073-0.651,2.229-0.651,3.468c0,1.24,0.216,2.395,0.651,3.467
					c0.434,1.073,1.027,2.01,1.779,2.814c0.751,0.804,1.628,1.432,2.63,1.885c1.002,0.452,2.071,0.678,3.207,0.678
					c1.135,0,2.204-0.226,3.206-0.678c1.002-0.452,1.879-1.08,2.63-1.885c0.752-0.804,1.344-1.741,1.779-2.814
					C394.758,51.01,394.975,49.854,394.975,48.615z"/>
				<path fill="#FA8D29" d="M427.588,37.107l-3.869,6.131c-0.703-0.77-1.482-1.449-2.337-2.035
					c-0.854-0.586-1.717-0.879-2.588-0.879c-0.469,0-0.979,0.109-1.533,0.327c-0.553,0.218-1.072,0.578-1.558,1.08
					c-0.486,0.502-0.897,1.164-1.231,1.985c-0.335,0.821-0.502,1.834-0.502,3.04v16.382h-7.236V34.092h7.236v3.116
					c0.87-1.239,1.834-2.194,2.889-2.864c1.055-0.67,2.237-1.005,3.543-1.005c1.273,0,2.52,0.344,3.743,1.03
					C425.368,35.055,426.516,35.969,427.588,37.107z"/>
				<path fill="#FA8D29" d="M437.688,29.016h-7.538v-7.538h7.538V29.016z M437.588,63.137h-7.337V34.042h7.337V63.137z"/>
				<path fill="#FA8D29" d="M474.221,48.564c0,0.47-0.025,0.955-0.076,1.457c-0.05,0.503-0.109,1.022-0.175,1.558h-23.217
					c0.268,0.838,0.645,1.633,1.131,2.387c0.485,0.754,1.08,1.407,1.784,1.96s1.499,0.988,2.387,1.306
					c0.887,0.319,1.868,0.477,2.94,0.477c1.306,0,2.613-0.226,3.919-0.678c1.306-0.452,2.395-1.063,3.266-1.834l4.573,4.573
					c-2.011,1.508-3.979,2.571-5.905,3.191c-1.927,0.62-3.962,0.93-6.105,0.93c-2.179,0-4.213-0.402-6.106-1.206
					c-1.893-0.804-3.535-1.892-4.925-3.267c-1.39-1.373-2.487-2.99-3.291-4.849c-0.804-1.859-1.206-3.844-1.206-5.955
					c0-2.111,0.402-4.095,1.206-5.955c0.804-1.859,1.91-3.475,3.316-4.849c1.407-1.373,3.048-2.462,4.925-3.266
					c1.876-0.804,3.886-1.206,6.03-1.206c2.044,0,4.003,0.377,5.88,1.13c1.876,0.754,3.534,1.801,4.975,3.141
					c1.44,1.34,2.579,2.94,3.417,4.799C473.801,44.268,474.221,46.32,474.221,48.564z M466.633,45.75
					c-0.57-1.842-1.583-3.324-3.04-4.447c-1.457-1.122-3.108-1.684-4.95-1.684c-1.809,0-3.434,0.562-4.875,1.684
					c-1.441,1.123-2.446,2.605-3.015,4.447H466.633z"/>
				<path fill="#FA8D29" d="M500.049,54.996c0,1.441-0.336,2.722-1.007,3.844c-0.673,1.123-1.546,2.06-2.619,2.814
					c-1.075,0.754-2.283,1.324-3.626,1.709c-1.344,0.385-2.669,0.578-3.978,0.578c-2.216,0-4.256-0.411-6.12-1.231
					c-1.864-0.82-3.5-2.136-4.91-3.945l4.372-4.422c0.87,1.105,1.876,1.969,3.015,2.588c1.139,0.621,2.362,0.93,3.668,0.93
					c1.139,0,2.086-0.209,2.839-0.628c0.754-0.419,1.131-1.046,1.131-1.885c0-0.87-0.537-1.599-1.608-2.186
					c-1.072-0.586-2.58-1.164-4.523-1.734c-1.139-0.335-2.245-0.761-3.316-1.281c-1.073-0.519-2.028-1.156-2.865-1.91
					s-1.508-1.616-2.01-2.588c-0.502-0.971-0.754-2.093-0.754-3.367c0-1.407,0.328-2.671,0.983-3.794
					c0.655-1.122,1.511-2.06,2.569-2.814c1.057-0.754,2.258-1.332,3.601-1.734c1.343-0.402,2.703-0.603,4.08-0.603
					c4.431,0,8.058,1.675,10.878,5.025l-4.322,4.372c-0.837-1.038-1.793-1.859-2.864-2.462c-1.072-0.603-2.245-0.904-3.518-0.904
					c-0.435,0-0.896,0.059-1.382,0.176c-0.486,0.118-0.938,0.285-1.357,0.503c-0.42,0.218-0.762,0.503-1.03,0.854
					c-0.269,0.352-0.402,0.746-0.402,1.181c0,0.771,0.51,1.441,1.533,2.01c1.021,0.57,2.488,1.139,4.397,1.709
					c1.239,0.369,2.412,0.838,3.517,1.407c1.105,0.57,2.077,1.231,2.915,1.985c0.837,0.754,1.499,1.608,1.985,2.563
					C499.806,52.71,500.049,53.79,500.049,54.996z"/>
			</g>
		</g>
	</g>
	<g>
		<path fill="#012639" d="M42.534,66.88l-4.505-9.29c-0.472-0.972-0.245-2.094,0.471-2.823l-1.705-3.517
			c-1.992,0.61-4.105,0.94-6.294,0.94c-11.878,0-21.541-9.663-21.541-21.541c0-11.878,9.664-21.541,21.541-21.541
			c11.878,0,21.541,9.663,21.541,21.541c0,7.964-4.347,14.927-10.79,18.655l1.621,3.342c1.016-0.111,2.037,0.406,2.509,1.378
			l2.337,4.819c0,0,0,0.001,0,0.001c5.335-9.042,9.842-19.602,9.842-29.478c0-14.328-12.901-25.931-27.252-25.83
			C16.127,3.635,3.44,15.142,3.44,29.323c0,24.52,27.053,52.562,27.053,52.562s5.807-6.076,12.041-15.003
			C42.534,66.881,42.534,66.881,42.534,66.88z"/>
		<path fill="#FA8D29" d="M30.5,13.242c-9.614,0-17.407,7.793-17.407,17.407c0,9.614,7.793,17.407,17.407,17.407
			s17.407-7.793,17.407-17.407C47.907,21.035,40.114,13.242,30.5,13.242z M22.785,42.382c-2.239-1.482-4.049-3.598-5.154-6.14
			l5.032-1.455c0.705,1.326,1.729,2.457,2.978,3.279L22.785,42.382z M21.626,30.649c0,0.332,0.027,0.658,0.063,0.981l-5.017,1.45
			c-1.341-7.624,3.743-14.934,11.369-16.316c0.754-0.137,1.502-0.193,2.245-0.207l0.1,5.224
			C25.546,21.843,21.626,25.795,21.626,30.649z"/>
	</g>
</g>
</svg>
