<?xml version="1.0" encoding="iso-8859-1"?>
<!-- Generator: Adobe Illustrator 17.0.0, SVG Export Plug-In . SVG Version: 6.00 Build 0)  -->
<!DOCTYPE svg PUBLIC "-//W3C//DTD SVG 1.1//EN" "http://www.w3.org/Graphics/SVG/1.1/DTD/svg11.dtd">
<svg version="1.1" id="Layer_1" xmlns="http://www.w3.org/2000/svg" xmlns:xlink="http://www.w3.org/1999/xlink" x="0px" y="0px"
	 width="24px" height="24px" viewBox="0 0 24 24" style="enable-background:new 0 0 24 24;" xml:space="preserve">
<g>
	<defs>
		<rect id="SVGID_1_" width="24" height="24"/>
	</defs>
	<clipPath id="SVGID_2_">
		<use xlink:href="#SVGID_1_"  style="overflow:visible;"/>
	</clipPath>
	<path style="clip-path:url(#SVGID_2_);fill:#FFFFFF;" d="M6.503,20.751C6.503,22.545,5.047,24,3.252,24C1.456,24,0,22.545,0,20.751
		c0-1.793,1.456-3.247,3.252-3.247C5.047,17.505,6.503,18.958,6.503,20.751 M0,8.181v4.811C6.05,13.053,10.96,17.958,11.022,24
		h4.818C15.777,15.291,8.721,8.243,0,8.181 M0,4.812C10.58,4.858,19.152,13.407,19.183,24H24C23.97,10.769,13.244,0.047,0,0V4.812z"
		/>
</g>
</svg>
