<?xml version="1.0" encoding="iso-8859-1"?>
<!-- Generator: Adobe Illustrator 17.0.0, SVG Export Plug-In . SVG Version: 6.00 Build 0)  -->
<!DOCTYPE svg PUBLIC "-//W3C//DTD SVG 1.1//EN" "http://www.w3.org/Graphics/SVG/1.1/DTD/svg11.dtd">
<svg version="1.1" id="Layer_1" xmlns="http://www.w3.org/2000/svg" xmlns:xlink="http://www.w3.org/1999/xlink" x="0px" y="0px"
	 width="24px" height="20px" viewBox="0 0 24 20" style="enable-background:new 0 0 24 20;" xml:space="preserve">
<g>
	<defs>
		<rect id="SVGID_1_" width="24" height="20"/>
	</defs>
	<clipPath id="SVGID_2_">
		<use xlink:href="#SVGID_1_"  style="overflow:visible;"/>
	</clipPath>
	<path style="clip-path:url(#SVGID_2_);fill:#FFFFFF;" d="M5,2H2V1h3V2z M15.93,2l0.812,1.219C17.485,4.334,18.729,5,20.07,5H22v13
		H2V5h3.93c1.341,0,2.585-0.666,3.328-1.781L10.07,2H15.93z M17,0H9L7.594,2.109C7.223,2.666,6.599,3,5.93,3H0v17h24V3h-3.93
		c-0.669,0-1.293-0.334-1.664-0.891L17,0z M6,8c0-0.552-0.447-1-1-1S4,7.448,4,8s0.447,1,1,1S6,8.552,6,8 M13,8c1.654,0,3,1.346,3,3
		s-1.346,3-3,3s-3-1.346-3-3S11.346,8,13,8 M13,6c-2.761,0-5,2.239-5,5s2.239,5,5,5s5-2.239,5-5S15.761,6,13,6"/>
</g>
</svg>
