<?xml version="1.0" encoding="iso-8859-1"?>
<!-- Generator: Adobe Illustrator 17.0.0, SVG Export Plug-In . SVG Version: 6.00 Build 0)  -->
<!DOCTYPE svg PUBLIC "-//W3C//DTD SVG 1.1//EN" "http://www.w3.org/Graphics/SVG/1.1/DTD/svg11.dtd">
<svg version="1.1" id="Layer_1" xmlns="http://www.w3.org/2000/svg" xmlns:xlink="http://www.w3.org/1999/xlink" x="0px" y="0px"
	 width="24px" height="22px" viewBox="0 0 24 22" style="enable-background:new 0 0 24 22;" xml:space="preserve">
<g>
	<defs>
		<rect id="SVGID_1_" width="24" height="22"/>
	</defs>
	<clipPath id="SVGID_2_">
		<use xlink:href="#SVGID_1_"  style="overflow:visible;"/>
	</clipPath>
	<path style="clip-path:url(#SVGID_2_);fill:#FFFFFF;" d="M24,2c-0.373,4.105-2.808,8.091-6.874,9.438
		c0.297-0.551,0.596-1.145,0.882-1.782c2.915-1.522,4.037-4.25,4.464-6.251h-2.688c0.058-0.45,0.102-0.923,0.138-1.405H24z M0,2
		c0.373,4.105,2.808,8.091,6.874,9.438c-0.297-0.551-0.596-1.145-0.882-1.782c-2.915-1.522-4.037-4.25-4.464-6.251h2.688
		C4.158,2.955,4.113,2.482,4.078,2H0z M16.92,2c-0.368,4.506-1.953,7.23-3.372,9.669c-0.577,0.993-1.135,1.954-1.543,2.95
		c-0.408-0.997-0.968-1.959-1.547-2.952C9.036,9.229,7.448,6.505,7.08,2H16.92z M18.999,0H5c0,9.803,5.106,13.053,5.604,17h2.805
		C13.906,13.053,18.999,9.803,18.999,0 M12,11.547C10.874,8.984,10.151,5.948,10.142,3H8.759C9.134,6.118,10.617,10.023,12,11.547
		 M13.438,18h-2.866c-0.202,1.187-0.63,2.619-2.571,2.619V22h8v-1.381C14.001,20.619,13.629,19.187,13.438,18"/>
</g>
</svg>
