<?xml version="1.0" encoding="iso-8859-1"?>
<!-- Generator: Adobe Illustrator 17.0.0, SVG Export Plug-In . SVG Version: 6.00 Build 0)  -->
<!DOCTYPE svg PUBLIC "-//W3C//DTD SVG 1.1//EN" "http://www.w3.org/Graphics/SVG/1.1/DTD/svg11.dtd">
<svg version="1.1" id="Layer_1" xmlns="http://www.w3.org/2000/svg" xmlns:xlink="http://www.w3.org/1999/xlink" x="0px" y="0px"
	 width="24px" height="24px" viewBox="0 0 24 24" style="enable-background:new 0 0 24 24;" xml:space="preserve">
<g>
	<defs>
		<rect id="SVGID_1_" width="24" height="24"/>
	</defs>
	<clipPath id="SVGID_2_">
		<use xlink:href="#SVGID_1_"  style="overflow:visible;"/>
	</clipPath>
	<path style="clip-path:url(#SVGID_2_);fill:#FFFFFF;" d="M24,9.844l-3.583,6.781L19.333,14c-4.05,2.277-5.11,5.961-5.333,10h-4
		c0.189-5.147,1.358-10.246,7.75-13.875L16.709,7.5L24,9.844z M10.758,13.818c-1.098-1.34-2.557-2.586-4.508-3.693L7.291,7.5
		L0,9.844l3.583,6.781L4.667,14c2.018,1.136,3.293,2.619,4.093,4.323C9.172,16.79,9.806,15.271,10.758,13.818 M12,0L7,5h3v5.267
		c0.764,0.621,1.428,1.268,2.011,1.936c0.581-0.666,1.226-1.316,1.989-1.936V5h3L12,0z"/>
</g>
</svg>
