<?xml version="1.0" encoding="iso-8859-1"?>
<!-- Generator: Adobe Illustrator 17.0.0, SVG Export Plug-In . SVG Version: 6.00 Build 0)  -->
<!DOCTYPE svg PUBLIC "-//W3C//DTD SVG 1.1//EN" "http://www.w3.org/Graphics/SVG/1.1/DTD/svg11.dtd">
<svg version="1.1" id="iconmonstr" xmlns="http://www.w3.org/2000/svg" xmlns:xlink="http://www.w3.org/1999/xlink" x="0px" y="0px"
	 width="24.492px" height="14.63px" viewBox="0 0 24.492 14.63" style="enable-background:new 0 0 24.492 14.63;"
	 xml:space="preserve">
<path id="star-7" style="fill:#C2C2C2;" d="M12.246,0l1.704,5.243h5.513l-4.46,3.241l1.704,5.243l-4.46-3.241l-4.46,3.241
	l1.704-5.243l-4.46-3.241h5.513L12.246,0z"/>
<rect x="20.963" y="6.866" style="fill:#C2C2C2;" width="3.529" height="0.898"/>
<rect x="19.198" y="12.615" transform="matrix(0.7071 0.7071 -0.7071 0.7071 15.3775 -10.9964)" style="fill:#C2C2C2;" width="3.529" height="0.898"/>
<rect x="19.198" y="1.116" transform="matrix(0.7071 -0.7071 0.7071 0.7071 5.0329 15.2813)" style="fill:#C2C2C2;" width="3.529" height="0.898"/>
<rect x="0" y="6.866" style="fill:#C2C2C2;" width="3.529" height="0.898"/>
<rect x="1.765" y="12.615" transform="matrix(-0.7071 0.7071 -0.7071 -0.7071 15.2628 19.8062)" style="fill:#C2C2C2;" width="3.529" height="0.898"/>
<rect x="1.765" y="1.116" transform="matrix(-0.7071 -0.7071 0.7071 -0.7071 4.9181 5.1681)" style="fill:#C2C2C2;" width="3.529" height="0.898"/>
</svg>
