<?xml version="1.0" encoding="iso-8859-1"?>
<!-- Generator: Adobe Illustrator 17.0.0, SVG Export Plug-In . SVG Version: 6.00 Build 0)  -->
<!DOCTYPE svg PUBLIC "-//W3C//DTD SVG 1.1//EN" "http://www.w3.org/Graphics/SVG/1.1/DTD/svg11.dtd">
<svg version="1.1" id="Layer_1" xmlns="http://www.w3.org/2000/svg" xmlns:xlink="http://www.w3.org/1999/xlink" x="0px" y="0px"
	 width="24px" height="18px" viewBox="0 0 24 18" style="enable-background:new 0 0 24 18;" xml:space="preserve">
<g>
	<defs>
		<rect id="SVGID_1_" width="24" height="18"/>
	</defs>
	<clipPath id="SVGID_2_">
		<use xlink:href="#SVGID_1_"  style="overflow:visible;"/>
	</clipPath>
	<path style="clip-path:url(#SVGID_2_);fill:#FFFFFF;" d="M22,16H2V2h20V16z M24,0H0v18h24V0z M14,13.597V14H4c0,0,0-0.285,0-0.417
		c-0.004-1.111,0.044-1.747,1.324-2.043c1.403-0.324,2.787-0.613,2.121-1.841C5.473,6.062,6.883,4,9,4
		c2.077,0,3.521,1.985,1.556,5.699c-0.647,1.22,0.687,1.51,2.121,1.841C13.961,11.837,14.005,12.477,14,13.597 M20,4h-4v2h4V4z
		 M20,8h-4v2h4V8z M20,12h-4v2h4V12z"/>
</g>
</svg>
