<?xml version="1.0" encoding="iso-8859-1"?>
<!-- Generator: Adobe Illustrator 17.0.0, SVG Export Plug-In . SVG Version: 6.00 Build 0)  -->
<!DOCTYPE svg PUBLIC "-//W3C//DTD SVG 1.1//EN" "http://www.w3.org/Graphics/SVG/1.1/DTD/svg11.dtd">
<svg version="1.1" id="Layer_1" xmlns="http://www.w3.org/2000/svg" xmlns:xlink="http://www.w3.org/1999/xlink" x="0px" y="0px"
	 width="24px" height="24px" viewBox="0 0 24 24" style="enable-background:new 0 0 24 24;" xml:space="preserve">
<g>
	<defs>
		<rect id="SVGID_1_" y="0" width="24" height="24"/>
	</defs>
	<clipPath id="SVGID_2_">
		<use xlink:href="#SVGID_1_"  style="overflow:visible;"/>
	</clipPath>
	<path style="clip-path:url(#SVGID_2_);fill:#FFFFFF;" d="M9.471,19.743c-1.536,0.985-3.281,1.801-5.158,2.424
		c-0.241,0.08-0.505,0.056-0.726-0.068c-0.293-0.163-0.46-0.48-0.427-0.806c0.034-0.327,0.26-0.604,0.579-0.711
		C8.366,19.053,12.32,16.188,14.125,12c0.965-2.24-0.877-3.842-2.78-3.842c-1.148,0-2.318,0.582-2.91,1.956
		c-1.068,2.474-3.754,4.435-7.355,5.438C0.544,15.701,0.01,15.315,0,14.77c-0.008-0.389,0.253-0.735,0.638-0.842
		c3.079-0.859,5.343-2.466,6.205-4.465c0.413-0.958,1.073-1.739,1.909-2.259c0.765-0.476,1.661-0.727,2.593-0.727
		c1.646,0,3.206,0.784,4.067,2.046c0.824,1.207,0.932,2.673,0.304,4.128c-0.624,1.448-1.496,2.8-2.592,4.021
		C12.097,17.815,10.867,18.848,9.471,19.743 M1.378,19.149c4.627-1.092,9.046-3.633,10.884-7.893
		c0.185-0.428-0.023-0.921-0.462-1.101c-0.439-0.179-0.945,0.022-1.13,0.45c-1.41,3.27-4.974,5.793-9.671,6.903
		c-0.447,0.106-0.734,0.529-0.66,0.971C0.419,18.952,0.896,19.262,1.378,19.149 M22.131,20.369c0.222-0.186,0.326-0.471,0.277-0.752
		c-0.048-0.281-0.245-0.515-0.517-0.619c-0.803-0.308-1.782-0.779-2.292-1.573c-0.609-0.95-0.38-2.215-0.115-3.679
		c0.371-2.057,0.835-4.617-1.012-7.2c-1.325-1.855-3.482-3.065-5.918-3.321c-2.552-0.267-5.091,0.551-6.965,2.246
		C4.764,6.217,4.291,7.009,3.874,7.708c-0.658,1.1-1.213,2.024-3.083,2.626c-0.298,0.095-0.533,0.342-0.581,0.706
		c-0.08,0.602,0.514,1.082,1.109,0.892c2.505-0.803,3.287-2.107,4.045-3.378c0.393-0.656,0.764-1.275,1.401-1.851
		c1.507-1.363,3.549-2.021,5.604-1.806c1.938,0.203,3.647,1.154,4.686,2.609c1.439,2.015,1.078,4.015,0.728,5.949
		c-0.298,1.653-0.607,3.363,0.351,4.86c0.578,0.9,1.564,1.626,3.024,2.208C21.487,20.653,21.863,20.594,22.131,20.369 M10.4,21.583
		c-0.397,0.225-0.887,0.504-1.527,0.82c-0.336,0.166-0.523,0.524-0.464,0.887c0.06,0.361,0.353,0.645,0.725,0.7
		c0.173,0.026,0.348-0.001,0.504-0.078c0.421-0.208,0.782-0.401,1.095-0.575c1.244-0.689,1.361-0.7,2.539,0.145
		c0.142,0.103,0.298,0.211,0.467,0.325c0.187,0.125,0.417,0.175,0.64,0.136c0.348-0.058,0.623-0.315,0.697-0.65
		c0.075-0.334-0.067-0.678-0.357-0.871c-0.502-0.337-0.871-0.624-1.15-0.841C12.414,20.683,12.028,20.657,10.4,21.583 M1.54,6.549
		C1.906,6.795,2.375,6.7,2.618,6.341c0.162-0.239,0.33-0.485,0.517-0.749C5.2,2.69,8.85,1.266,12.899,1.784
		c3.847,0.493,7.008,2.637,8.048,5.463c0.924,2.505,0.559,4.528,0.265,6.154c-0.252,1.405-0.471,2.618,0.294,3.59
		c0.311,0.395,0.754,0.701,1.361,0.93C23.403,18.122,24,17.747,24,17.16c0-0.358-0.222-0.686-0.569-0.826
		c-0.261-0.104-0.444-0.227-0.554-0.365c-0.305-0.388-0.154-1.221,0.036-2.277c0.312-1.725,0.738-4.088-0.34-7.013
		c-1.258-3.412-4.967-5.988-9.45-6.562C12.515,0.04,11.905,0,11.298,0C8.011,0,4.82,1.155,2.563,3.595
		c-0.57,0.625-0.92,1.077-1.26,1.844C1.08,5.94,1.168,6.301,1.54,6.549 M15.718,18.295c-0.236-0.402-0.763-0.544-1.177-0.314
		c-0.415,0.229-0.559,0.742-0.324,1.146c0.785,1.346,2.009,2.48,3.689,3.416c0.25,0.139,0.556,0.148,0.815,0.024h0.001
		c0.285-0.136,0.47-0.416,0.478-0.725c0.01-0.31-0.157-0.598-0.433-0.752C17.362,20.308,16.351,19.38,15.718,18.295"/>
</g>
</svg>
