<?xml version="1.0" encoding="iso-8859-1"?>
<!-- Generator: Adobe Illustrator 17.0.0, SVG Export Plug-In . SVG Version: 6.00 Build 0)  -->
<!DOCTYPE svg PUBLIC "-//W3C//DTD SVG 1.1//EN" "http://www.w3.org/Graphics/SVG/1.1/DTD/svg11.dtd">
<svg version="1.1" id="iconmonstr" xmlns="http://www.w3.org/2000/svg" xmlns:xlink="http://www.w3.org/1999/xlink" x="0px" y="0px"
	 width="24px" height="24px" viewBox="0 0 24 24" style="enable-background:new 0 0 24 24;" xml:space="preserve">
<path id="megaphone-4" style="fill:#FFFFFF;" d="M13.665,4.179L2.654,15.423c-0.616,0.66-1.164,0.977-1.857,0.977
	c-0.244,0-0.507-0.039-0.797-0.117l2.646,4.586c0.258-1.095,0.814-1.708,2.006-1.985L20,15.151L13.665,4.179z M13.975,18.13
	l-0.467,2.118c-0.094,0.378-0.391,0.674-0.769,0.771l-2.951,0.775c-0.365,0.095-0.754-0.013-1.018-0.28l-1.574-1.712L8.8,19.406
	l0.647,0.77c0.176,0.177,0.433,0.247,0.675,0.185l1.598-0.425c0.252-0.064,0.449-0.26,0.511-0.511l0.161-0.906L13.975,18.13z
	 M22.694,6.863L20.01,8.476l-0.756-1.262l2.686-1.612L22.694,6.863z M18.298,5.702l-1.335-0.616l1.342-2.913l1.335,0.617
	L18.298,5.702z M23.917,11.859l-3.202-0.174l0.081-1.469L24,10.391L23.917,11.859z"/>
</svg>
