<?xml version="1.0" encoding="iso-8859-1"?>
<!-- Generator: Adobe Illustrator 17.0.0, SVG Export Plug-In . SVG Version: 6.00 Build 0)  -->
<!DOCTYPE svg PUBLIC "-//W3C//DTD SVG 1.1//EN" "http://www.w3.org/Graphics/SVG/1.1/DTD/svg11.dtd">
<svg version="1.1" id="iconmonstr" xmlns="http://www.w3.org/2000/svg" xmlns:xlink="http://www.w3.org/1999/xlink" x="0px" y="0px"
	 width="24px" height="24px" viewBox="0 0 24 24" style="enable-background:new 0 0 24 24;" xml:space="preserve">
<path id="video-14" style="fill:#FFFFFF;" d="M13,2.004c5.046,0.504,9,4.783,9,9.97c0,1.467-0.324,2.857-0.892,4.113l1.738,1.006
	C23.578,15.539,24,13.808,24,11.975C24,5.671,19.158,0.511,13,0V2.004z M2.891,16.087C2.323,14.83,2,13.44,2,11.975
	c0-5.188,3.954-9.466,9-9.97V0C4.842,0.511,0,5.671,0,11.975c0,1.833,0.421,3.563,1.153,5.118L2.891,16.087z M20.104,17.821
	c-1.817,2.522-4.769,4.174-8.104,4.174s-6.288-1.651-8.106-4.175l-1.746,1.011C4.316,21.952,7.917,24,12,24
	c4.082,0,7.683-2.048,9.851-5.169L20.104,17.821z M6.776,18.213V5.737l12.448,6.54L6.776,18.213z"/>
</svg>
