<?xml version="1.0" encoding="iso-8859-1"?>
<!-- Generator: Adobe Illustrator 17.0.0, SVG Export Plug-In . SVG Version: 6.00 Build 0)  -->
<!DOCTYPE svg PUBLIC "-//W3C//DTD SVG 1.1//EN" "http://www.w3.org/Graphics/SVG/1.1/DTD/svg11.dtd">
<svg version="1.1" id="Layer_1" xmlns="http://www.w3.org/2000/svg" xmlns:xlink="http://www.w3.org/1999/xlink" x="0px" y="0px"
	 width="24px" height="24px" viewBox="0 0 24 24" style="enable-background:new 0 0 24 24;" xml:space="preserve">
<g>
	<defs>
		<rect id="SVGID_1_" width="24" height="24"/>
	</defs>
	<clipPath id="SVGID_2_">
		<use xlink:href="#SVGID_1_"  style="overflow:visible;"/>
	</clipPath>
	<path style="clip-path:url(#SVGID_2_);fill:#FFFFFF;" d="M8.229,19C7.459,22.459,5,22.5,5,20.375V17V5.041C5,3.709,4.938,2.656,4,2
		h13c1.354,0,2,0.625,2,2v13h2V4c0-2.021-0.843-4-4-4H5C1.506,0,0,2.906,0,5h3v16c0,1.657,1.343,3,3,3h14
		c2.688-0.532,3.875-2.938,4-5H8.229z M12.099,5.106l1.394,4.288H18l-3.647,2.649l1.393,4.289l-3.647-2.651l-3.647,2.651
		l1.393-4.289L6.198,9.394h4.508L12.099,5.106z"/>
</g>
</svg>
