<?xml version="1.0" encoding="iso-8859-1"?>
<!-- Generator: Adobe Illustrator 17.0.0, SVG Export Plug-In . SVG Version: 6.00 Build 0)  -->
<!DOCTYPE svg PUBLIC "-//W3C//DTD SVG 1.1//EN" "http://www.w3.org/Graphics/SVG/1.1/DTD/svg11.dtd">
<svg version="1.1" id="Layer_1" xmlns="http://www.w3.org/2000/svg" xmlns:xlink="http://www.w3.org/1999/xlink" x="0px" y="0px"
	 width="896.647px" height="145.316px" viewBox="0 0 896.647 145.316" style="enable-background:new 0 0 896.647 145.316;"
	 xml:space="preserve">
<g>
	<g>
		<g>
			<path style="fill-rule:evenodd;clip-rule:evenodd;fill:#FFFFFF;" d="M28.715,122.284c6.346,0,11.492,5.133,11.492,11.468
				c0,6.335-5.146,11.471-11.492,11.471c-6.347,0-11.493-5.136-11.493-11.471C17.223,127.417,22.368,122.284,28.715,122.284z"/>
			<path style="fill-rule:evenodd;clip-rule:evenodd;fill:#FFFFFF;" d="M72.138,122.284c6.347,0,11.493,5.133,11.493,11.468
				c0,6.335-5.146,11.471-11.493,11.471c-6.346,0-11.492-5.136-11.492-11.471C60.646,127.417,65.792,122.284,72.138,122.284z"/>
		</g>
		<path style="fill-rule:evenodd;clip-rule:evenodd;fill:#FFFFFF;" d="M57.38,116.011h28.234
			c6.12-41.509,23.501-79.351,48.95-110.317C98.714,33.483,71.442,71.799,57.38,116.011z"/>
		<path style="fill-rule:evenodd;clip-rule:evenodd;fill:#FFFFFF;" d="M24.821,116.011h18.602
			c-6.928-42.769-19.555-68.168-19.555-68.168s8.028,0,16.501,0c3.484,0,4.267,2.743,5.076,4.578
			c1.325,3.007,5.161,13.106,7.713,20.301c9.265-13.772,20.003-26.47,31.99-37.868H17.272c-6.988,0-12.384,6.144-11.482,13.074
			l7.549,57.999C14.09,111.695,19.004,116.011,24.821,116.011z"/>
	</g>
	<path style="fill:#FFFFFF;" d="M521.495,96.873l2.394,18.978h12.189c-0.241-7.406-7.252-67.825-7.252-67.825
		s-4.322-0.01-6.154-0.01c-7.185,0-13.293,2.183-19.517,12.721c-13.798,23.359-28.19,48.735-31.799,55.113H483.8
		c2.257-4.051,2.397-5.174,4.12-7.915c5.232-8.319,11.8-11.064,19.953-11.064C509.517,96.873,521.495,96.873,521.495,96.873z
		 M517.653,59.953l3.075,29.839h-22.596c0,0,15.85-25.72,16.963-27.619C516.208,60.274,517.653,59.953,517.653,59.953z"/>
	<path style="fill:#FFFFFF;" d="M776.39,65.247l0.103-0.198h-13.115l-18.71,38.827l-4.584-38.827h-12.53
		c0.922,5.245,7.76,50.789,7.76,50.789s2.857,0,7.329,0c5.311,0,7.685,0,7.685,0S773.251,71.305,776.39,65.247z"/>
	<g>
		<path style="fill:#FFFFFF;" d="M896.309,54.501c0,3.772-2.961,6.732-6.814,6.732c-3.812,0-6.854-2.961-6.854-6.732
			c0-3.691,3.042-6.651,6.854-6.651C893.348,47.85,896.309,50.811,896.309,54.501z M884.344,54.501c0,2.961,2.19,5.313,5.192,5.313
			c2.92,0,5.069-2.352,5.069-5.273c0-2.961-2.149-5.354-5.11-5.354S884.344,51.581,884.344,54.501z M888.441,57.99h-1.542v-6.652
			c0.609-0.122,1.46-0.203,2.555-0.203c1.258,0,1.825,0.203,2.312,0.487c0.365,0.284,0.648,0.811,0.648,1.46
			c0,0.73-0.568,1.298-1.378,1.542v0.081c0.648,0.243,1.013,0.73,1.216,1.623c0.203,1.013,0.324,1.419,0.487,1.663h-1.663
			c-0.203-0.244-0.325-0.851-0.528-1.622c-0.121-0.731-0.527-1.055-1.378-1.055h-0.73V57.99z M888.482,54.217h0.73
			c0.851,0,1.54-0.284,1.54-0.973c0-0.609-0.445-1.015-1.419-1.015c-0.406,0-0.689,0.041-0.851,0.082V54.217z"/>
	</g>
	<path style="fill:#FFFFFF;" d="M874.464,47.85h-11.857l-2.538,17.199h-12.674c-14.334,0-20.372,6.185-23.071,23.641
		c-1.647,10.371-0.551,17.888,3.254,22.345c2.721,3.187,6.903,4.802,12.431,4.802h23.882L874.464,47.85z M853.527,107.026h-10.242
		c-2.913,0-4.781-0.669-6.055-2.171c-2.034-2.398-2.371-6.92-1.095-14.661c1.77-11.292,5.394-16.33,11.748-16.33h11.01
		L853.527,107.026z"/>
	<path style="fill:#FFFFFF;" d="M817.209,69.133c-2.327-2.695-6.159-4.12-11.084-4.12h-10.198c0,0.021-0.001,0.043-0.001,0.064
		c-13.209,0.451-18.905,6.808-21.504,23.612c-1.647,10.371-0.551,17.888,3.254,22.345c2.721,3.187,6.903,4.802,12.431,4.802h22.256
		l1.702-8.812h-20.682c-2.913,0-4.781-0.669-6.055-2.171c-1.481-1.746-2.099-3.451-1.813-7.872c8.311,0,22.343-0.002,22.343-0.002
		l1.386-0.213c2.361-0.362,8.67-2.5,10.475-14.707C820.56,76.387,819.715,72.038,817.209,69.133z M807.522,82.372
		c-0.598,4.367-2.019,7.263-7.018,7.263l-14.266,0.019c0.182-0.997,0.65-2.994,0.865-3.884c1.985-8.192,5.427-11.907,10.88-11.907
		h5.88c1.393,0.113,2.371,0.518,3.028,1.259C807.854,76.206,807.875,79.424,807.522,82.372z"/>
	<path style="fill:#FA8D29;" d="M432.034,69.133c-2.327-2.695-6.159-4.12-11.084-4.12h-10.198c0,0.021-0.001,0.043-0.001,0.064
		c-13.209,0.451-18.905,6.808-21.504,23.612c-1.647,10.371-0.551,17.888,3.254,22.345c2.721,3.187,6.903,4.802,12.431,4.802h22.256
		l1.702-8.812h-20.682c-2.913,0-4.781-0.669-6.055-2.171c-1.481-1.746-2.099-3.451-1.813-7.872c8.311,0,22.343-0.002,22.343-0.002
		l1.386-0.213c2.361-0.362,8.67-2.5,10.475-14.707C435.385,76.387,434.54,72.038,432.034,69.133z M422.347,82.372
		c-0.598,4.367-2.019,7.263-7.018,7.263l-14.266,0.019c0.182-0.997,0.65-2.994,0.865-3.884c1.985-8.192,5.427-11.907,10.88-11.907
		h5.881c1.393,0.113,2.371,0.518,3.028,1.259C422.678,76.206,422.7,79.424,422.347,82.372z"/>
	<g>
		<path style="fill:#FFFFFF;" d="M681.541,64.614c-0.867-0.101-1.915-0.154-3.157-0.154c-2.605,0-5.018,0.381-7.241,1.143
			c-2.224,0.762-4.034,1.557-5.431,2.382c-1.289,0.762-2.877,1.797-4.76,3.097l0.954-6.164h-11.808l-7.947,51.104h11.845
			l4.599-29.714c0.681-4.402,3.695-8.138,7.908-9.584c0.022-0.008,0.044-0.015,0.066-0.023c2.164-0.731,4.67-1.121,7.509-1.179
			C675.953,70.776,678.396,67.233,681.541,64.614z"/>
	</g>
	<g>
		<path style="fill:#FA8D29;" d="M475.614,64.614c-0.867-0.101-1.915-0.154-3.157-0.154c-2.605,0-5.018,0.381-7.241,1.143
			c-2.224,0.762-4.035,1.557-5.431,2.382c-1.289,0.762-2.877,1.797-4.76,3.097l0.954-6.164h-11.808l-7.947,51.104h11.845
			l4.599-29.714c0.681-4.402,3.695-8.138,7.908-9.584c0.022-0.008,0.044-0.015,0.066-0.023c2.164-0.731,4.67-1.121,7.509-1.179
			L475.614,64.614z"/>
	</g>
	<path style="fill:#FFFFFF;" d="M722.957,92.051c1.712-10.77,0.797-18.05-2.792-22.256c-3.838-4.497-10.415-5.102-16.343-5.102
		c-14.549,0-23.653,1.672-27.377,24.855c-1.693,10.414-0.834,17.452,2.625,21.519c3.79,4.456,10.547,5.056,16.656,5.056
		C709.881,116.123,719.424,114.448,722.957,92.051z M689.059,104.496c-1.822-2.136-2.013-5.746-0.728-13.798
		c2.338-14.503,5.235-16.693,13.986-16.693c3.707,0,6.327,0.379,7.933,2.263c1.927,2.266,2.158,6.368,0.82,14.636
		c-1.992,12.488-4.984,15.907-13.917,15.907C692.807,106.811,690.46,106.14,689.059,104.496z"/>
	<path style="fill:#FA8D29;" d="M282.921,92.051c1.712-10.77,0.797-18.05-2.792-22.256c-3.838-4.497-10.415-5.102-16.343-5.102
		c-14.549,0-23.653,1.672-27.377,24.855c-1.693,10.414-0.834,17.452,2.625,21.519c3.79,4.456,10.547,5.056,16.656,5.056
		C269.845,116.123,279.388,114.448,282.921,92.051z M249.022,104.496c-1.822-2.136-2.013-5.746-0.728-13.798
		c2.338-14.503,5.235-16.693,13.986-16.693c3.707,0,6.327,0.379,7.933,2.263c1.927,2.266,2.158,6.368,0.82,14.636
		c-1.992,12.488-4.984,15.907-13.917,15.907C252.77,106.811,250.424,106.14,249.022,104.496z"/>
	<path style="fill:#FFFFFF;" d="M585.408,69.722c-2.721-3.187-6.903-4.802-12.431-4.802h-23.882l-10.573,67.988h11.858l2.538-17.199
		h12.674c14.334,0,20.372-6.185,23.071-23.641C590.309,81.696,589.214,74.18,585.408,69.722z M576.85,90.565
		c-1.769,11.292-5.394,16.33-11.748,16.33h-11.01l5.367-33.162h10.242c2.913,0,4.781,0.669,6.055,2.171
		C577.79,78.301,578.127,82.823,576.85,90.565z"/>
	<path style="fill:#FFFFFF;" d="M635.692,69.722c-2.721-3.187-6.903-4.802-12.431-4.802h-23.882l-10.573,67.988h11.858l2.538-17.199
		h12.674c14.334,0,20.372-6.185,23.071-23.641C640.593,81.696,639.497,74.18,635.692,69.722z M627.134,90.565
		c-1.77,11.292-5.394,16.33-11.748,16.33h-11.01l5.367-33.162h10.242c2.913,0,4.781,0.669,6.055,2.171
		C628.074,78.301,628.411,82.823,627.134,90.565z"/>
	<path style="fill:#FA8D29;" d="M329.74,69.722c-2.721-3.187-6.903-4.802-12.431-4.802h-23.882l-10.573,67.988h11.858l2.538-17.199
		h12.674c14.334,0,20.372-6.185,23.071-23.641C334.641,81.696,333.545,74.18,329.74,69.722z M321.182,90.565
		c-1.77,11.292-5.394,16.33-11.748,16.33h-11.01l5.367-33.162h10.242c2.913,0,4.781,0.669,6.055,2.171
		C322.122,78.301,322.459,82.823,321.182,90.565z"/>
	<path style="fill:#FA8D29;" d="M229.886,88.264c0.135-0.947,0.243-1.896,0.285-2.852c0.305-6.987-1.014-12.251-3.95-15.69
		c-2.721-3.187-6.903-4.802-12.431-4.802h-12.021l2.619-17.07h-11.717l-10.573,67.988h11.857l6.461-42.106h10.098
		c2.913,0,4.781,0.669,6.055,2.171c2.034,2.398,2.371,6.92,1.095,14.661c-0.085,0.539-0.134,1.033-0.167,1.503l-3.697,23.77h11.857
		l2.732-17.807C228.675,96.709,229.501,90.976,229.886,88.264z"/>
	<path style="fill:#FA8D29;" d="M380.024,69.722c-2.721-3.187-6.903-4.802-12.431-4.802H343.71l-10.573,67.988h11.858l2.538-17.199
		h12.674c14.334,0,20.372-6.185,23.071-23.641C384.925,81.696,383.829,74.18,380.024,69.722z M371.466,90.565
		c-1.77,11.292-5.394,16.33-11.748,16.33h-11.01l5.367-33.162h10.242c2.913,0,4.781,0.669,6.055,2.171
		C372.405,78.301,372.743,82.823,371.466,90.565z"/>
	<path style="fill:#FA8D29;" d="M162.296,47.983c-12.828,0-24.48,2.686-27.084,12.936c-1.263,4.97-0.178,9.208,1.434,12.437
		c1.823,3.653,7.338,7.564,12.359,10.175c2.739,1.424,6.891,3.558,10.268,5.298c6.43,3.313,6.336,8.475,5.013,11.694
		c-1.658,4.033-6.023,6.502-13.153,6.502h-22.07l-1.38,8.812h28.493c14.944,0,21.206-10.493,21.733-18.98
		c0.443-7.136-3.373-14.143-12.572-18.964c-3.619-1.896-5.114-2.429-13.779-7.156c-6.483-3.537-5.626-13.943,7.466-13.943h20.92
		l1.376-8.812H162.296z"/>
</g>
</svg>
