<?xml version="1.0" encoding="iso-8859-1"?>
<!-- Generator: Adobe Illustrator 17.0.0, SVG Export Plug-In . SVG Version: 6.00 Build 0)  -->
<!DOCTYPE svg PUBLIC "-//W3C//DTD SVG 1.1//EN" "http://www.w3.org/Graphics/SVG/1.1/DTD/svg11.dtd">
<svg version="1.1" id="Layer_1" xmlns="http://www.w3.org/2000/svg" xmlns:xlink="http://www.w3.org/1999/xlink" x="0px" y="0px"
	 width="147.821px" height="29.216px" viewBox="0 0 147.821 29.216" style="enable-background:new 0 0 147.821 29.216;"
	 xml:space="preserve">
<g>
	<g>
		<path style="fill:#3C5A99;" d="M81.128,10.099c-2.204-0.235-4.11,0.432-5.722,2.371v-0.603l0,0V1.404V1.289V0.582l-5.836,0.707
			v27.513h5.836v-1.633c0.787,0.562,1.553,1.238,2.448,1.559c3.4,1.219,7.884,0.225,9.453-4.323
			c1.007-2.918,0.981-5.909,0.223-8.859C86.689,12.268,84.508,10.459,81.128,10.099z M82,22.014
			c-0.257,1.814-1.701,2.765-3.415,2.631c-0.428-0.034-0.816-0.121-1.164-0.257c-1.382-0.793-1.799-2.121-1.921-2.955
			c-0.001,0.001-0.003,0.001-0.003,0.001c-0.095-1.291-0.196-3.989,0.433-5.264c0.534-0.977,1.467-1.51,2.704-1.551
			c1.757-0.058,3.086,0.814,3.348,2.597C82.215,18.788,82.226,20.444,82,22.014z"/>
		<path style="fill:#3C5A99;" d="M101.81,10.438c-2.028-0.542-4.076-0.536-6.099,0.003c-3.03,0.806-5.061,2.724-5.715,5.773
			c-0.357,1.664-0.428,3.433-0.334,5.139c0.216,3.903,2.629,6.683,6.375,7.547c0.052,0.013,0.107,0.022,0.161,0.034h-0.001
			c0,0,0.011,0.002,0.027,0.005c0.144,0.029,0.288,0.056,0.433,0.078c0.048,0.004,0.098,0.008,0.145,0.013c0.001,0,0.003,0,0.004,0
			c0.182,0.034,0.4,0.058,0.629,0.076c0.733,0.078,1.667,0.133,2.446,0.042c0.005,0,0.008-0.001,0.012-0.002
			c0.04-0.001,0.08-0.001,0.119-0.003c3.868-0.201,6.803-2.64,7.66-6.381c0.47-2.052,0.47-4.114,0.015-6.168
			C106.977,13.371,105.022,11.298,101.81,10.438z M102.057,21.718c-0.019,0.121-0.04,0.241-0.067,0.361
			c-0.387,1.722-1.638,2.653-3.305,2.576c-1.793-0.082-3.022-1.13-3.195-2.921c-0.125-1.309-0.135-2.645-0.026-3.954
			c0.17-2.067,1.463-3.197,3.402-3.159c1.594,0.031,2.729,0.934,3.133,2.466C102.366,18.628,102.093,21.368,102.057,21.718z"/>
		<path style="fill:#3C5A99;" d="M14.206,10.342H10.04v-2.77c0.304-2.619,4.63-2.121,4.63-2.121l0.001-0.179l-0.001-0.02V0.95
			h-0.001V0.95h-0.003C14.517,0.914,6.062-1.092,4.383,5.343c0,0.001,0,0.003-0.002,0.005C4.378,5.362,4.374,5.376,4.37,5.39
			c-0.264,0.804-0.246,4.489-0.243,4.952h-3.61v4.927h3.834V28.67h5.583V15.269h4.27l0.481-4.927L14.206,10.342z"/>
		<path style="fill:#3C5A99;" d="M27.52,12.699c-0.068-0.076-0.136-0.149-0.194-0.21v-0.001c-0.009-0.009-0.017-0.017-0.026-0.027
			c-0.081-0.084-0.138-0.141-0.138-0.141l0,0c-1.315-1.337-1.811-1.669-2.84-1.973c-3.96-1.166-7.815,0.907-9.036,4.891
			c-0.75,2.448-0.761,4.968-0.321,7.447c0.95,5.369,4.943,7.167,9.2,6.281c1.306-0.272,2.277-1.085,3.177-2.218
			c0,0,0.081-0.099,0.18-0.292v2.362h5.446V10.363h-5.446L27.52,12.699L27.52,12.699z M27.041,21.987
			c-0.182,1.707-1.563,2.732-3.196,2.667c-1.673-0.065-2.779-0.961-3.141-2.566c-0.433-2.283,0.074-4.996,0.117-5.216
			c0.437-1.533,1.552-2.291,3.188-2.253c1.606,0.036,2.844,0.987,3.025,2.651C27.204,18.828,27.208,20.43,27.041,21.987z"/>
		<path style="fill:#3C5A99;" d="M49.601,27.497c-0.253-0.924-0.54-1.836-0.819-2.717l-0.263-0.979c0,0-6.826,3.277-7.891-2.95
			c-0.099-1.028-0.068-2.088,0.073-3.103c0.265-1.914,1.433-2.939,3.291-3.115c0.627-0.06,1.28-0.029,1.902,0.076
			c0.846,0.143,1.672,0.398,2.598,0.626c0.322-0.985,0.651-1.959,0.957-2.94c0.048-0.154,0.088-0.286,0.12-0.405h0.001l0.154-0.589
			c-0.038-0.078-0.131-0.16-0.256-0.239c0,0,0,0,0,0.001c-0.157-0.131-0.424-0.241-0.842-0.394
			c-0.167-0.061-0.335-0.115-0.502-0.168c-0.15-0.048-0.248-0.076-0.248-0.076h0.001c-1.793-0.513-3.634-0.552-5.505-0.355
			c-3.942,0.416-6.617,2.743-7.36,6.583c-0.389,2.021-0.371,4.066,0.076,6.093c0.67,3.035,2.509,4.996,5.5,5.873
			c1.952,0.572,3.951,0.601,5.941,0.29c0.837-0.131,2.037-0.564,2.898-0.874l0.328-0.115L49.6,27.496L49.601,27.497z"/>
		<path style="fill:#3C5A99;" d="M67.571,20.276c-0.026-1.278-0.009-2.562-0.19-3.817c-0.498-3.443-2.594-5.622-5.985-6.191
			c-1.294-0.217-2.662-0.188-3.977-0.062c-3.598,0.343-6.329,2.584-6.889,5.957c-0.34,2.046-0.383,4.217-0.109,6.272
			c0.415,3.091,1.92,5.06,4.524,6.005c0.001,0,0.001,0,0.001,0c0.012,0.001,0.023,0.003,0.035,0.004
			c-0.001,0.001-0.001,0.001-0.001,0.002c1.189,0.355,7.006,1.876,12.133-0.7l-0.206-0.755c-0.002,0.001-0.005,0.001-0.007,0.001
			c-0.237-1.007-0.523-2.003-0.792-3.001l-0.029-0.098c0,0-0.107,0.038-0.296,0.099c-0.004,0.001-0.009,0.001-0.013,0.001
			c-0.224,0.058-0.445,0.127-0.665,0.2c-0.041,0.013-0.081,0.026-0.122,0.038c-0.776,0.219-1.886,0.488-3.058,0.639
			c-0.983,0.099-1.977,0.103-2.98,0.017c-1.628-0.269-2.875-1.142-2.815-3.204h0.931c3.192,0,6.384,0,9.577-0.001
			c0.076,0,0.153,0.001,0.229-0.001l-0.001,0.001c0,0,0.686-0.009,0.715-0.015c0,0-0.001-0.181,0-0.203L67.571,20.276z
			 M62.322,17.76h-6.306c0.033-1.254,0.19-2.42,1.305-3.13c1.184-0.752,2.492-0.78,3.709-0.106
			C62.261,15.204,62.357,16.432,62.322,17.76z"/>
		<polygon style="fill:#3C5A99;" points="147.15,10.555 140.959,10.555 135.583,18.96 135.583,1.422 135.583,1.306 135.583,0.599 
			129.747,1.306 129.747,28.82 135.583,28.82 135.583,20.4 140.959,28.832 147.15,28.832 141.315,19.678 		"/>
		<path style="fill:#3C5A99;" d="M121.714,10.436c-2.028-0.543-4.077-0.536-6.101,0.003c-3.029,0.807-5.059,2.724-5.714,5.773
			c-0.357,1.665-0.428,3.433-0.334,5.14c0.215,3.903,2.629,6.684,6.374,7.547c0.054,0.013,0.109,0.022,0.162,0.034h-0.001
			c0,0,0.009,0.002,0.026,0.005c0.144,0.029,0.29,0.056,0.434,0.077c0.048,0.005,0.097,0.009,0.145,0.012
			c0.001,0.001,0.003,0.001,0.004,0.001c0.183,0.034,0.4,0.059,0.627,0.077c0.735,0.078,1.669,0.133,2.447,0.042
			c0.004-0.001,0.007-0.001,0.012-0.003c0.041-0.001,0.08-0.001,0.118-0.003c3.869-0.202,6.804-2.641,7.661-6.381
			c0.47-2.052,0.47-4.115,0.017-6.168C126.88,13.368,124.926,11.295,121.714,10.436z M121.96,21.715
			c-0.019,0.122-0.04,0.241-0.067,0.361c-0.389,1.722-1.638,2.652-3.305,2.576c-1.793-0.084-3.022-1.131-3.195-2.922
			c-0.125-1.308-0.136-2.644-0.027-3.953c0.173-2.067,1.464-3.198,3.404-3.16c1.591,0.031,2.727,0.934,3.132,2.466
			C122.268,18.624,121.997,21.365,121.96,21.715z"/>
	</g>
</g>
<g>
</g>
<g>
</g>
<g>
</g>
<g>
</g>
<g>
</g>
<g>
</g>
</svg>
