<?xml version="1.0" encoding="iso-8859-1"?>
<!-- Generator: Adobe Illustrator 17.0.0, SVG Export Plug-In . SVG Version: 6.00 Build 0)  -->
<!DOCTYPE svg PUBLIC "-//W3C//DTD SVG 1.1//EN" "http://www.w3.org/Graphics/SVG/1.1/DTD/svg11.dtd">
<svg version="1.1" id="Layer_1" xmlns="http://www.w3.org/2000/svg" xmlns:xlink="http://www.w3.org/1999/xlink" x="0px" y="0px"
	 width="890.617px" height="139.53px" viewBox="0 0 890.617 139.53" style="enable-background:new 0 0 890.617 139.53;"
	 xml:space="preserve">
<g>
	<defs>
		<rect id="SVGID_1_" width="890.617" height="139.53"/>
	</defs>
	<clipPath id="SVGID_2_">
		<use xlink:href="#SVGID_1_"  style="overflow:visible;"/>
	</clipPath>
	<path style="clip-path:url(#SVGID_2_);fill-rule:evenodd;clip-rule:evenodd;fill:#012639;" d="M23.024,116.591
		c6.346,0,11.492,5.133,11.492,11.468c0,6.336-5.146,11.471-11.492,11.471c-6.347,0-11.493-5.135-11.493-11.471
		C11.531,121.724,16.677,116.591,23.024,116.591"/>
	<path style="clip-path:url(#SVGID_2_);fill-rule:evenodd;clip-rule:evenodd;fill:#012639;" d="M66.447,116.591
		c6.347,0,11.493,5.133,11.493,11.468c0,6.336-5.146,11.471-11.493,11.471s-11.492-5.135-11.492-11.471
		C54.955,121.724,60.1,116.591,66.447,116.591"/>
	<path style="clip-path:url(#SVGID_2_);fill-rule:evenodd;clip-rule:evenodd;fill:#012639;" d="M51.689,110.317h28.234
		c6.12-41.51,23.501-79.351,48.95-110.317C93.023,27.789,65.751,66.105,51.689,110.317"/>
	<path style="clip-path:url(#SVGID_2_);fill-rule:evenodd;clip-rule:evenodd;fill:#012639;" d="M19.13,110.317h18.602
		c-6.928-42.769-19.555-68.168-19.555-68.168h16.502c3.484,0,4.267,2.743,5.075,4.578c1.325,3.007,5.161,13.105,7.713,20.3
		c9.265-13.772,20.003-26.47,31.99-37.868H11.581c-6.989,0-12.384,6.144-11.482,13.074l7.549,57.999
		C8.399,106.001,13.313,110.317,19.13,110.317"/>
	<path style="clip-path:url(#SVGID_2_);fill:#012639;" d="M515.804,91.18l2.394,18.978h12.19
		c-0.241-7.406-7.252-67.824-7.252-67.824s-4.322-0.01-6.154-0.01c-7.186,0-13.293,2.183-19.518,12.721
		c-13.798,23.36-28.19,48.736-31.799,55.113h12.443c2.258-4.051,2.398-5.174,4.121-7.915c5.232-8.319,11.8-11.063,19.953-11.063
		H515.804z M511.962,54.26l3.074,29.839h-22.595c0,0,15.85-25.72,16.963-27.619C510.517,54.58,511.962,54.26,511.962,54.26"/>
	<path style="clip-path:url(#SVGID_2_);fill:#012639;" d="M770.698,59.554l0.104-0.198h-13.116l-18.71,38.827l-4.585-38.827h-12.53
		c0.922,5.245,7.761,50.789,7.761,50.789h7.329h7.685C744.636,110.145,767.559,65.612,770.698,59.554"/>
	<path style="clip-path:url(#SVGID_2_);fill:#012639;" d="M890.617,48.808c0,3.772-2.961,6.733-6.813,6.733
		c-3.812,0-6.855-2.961-6.855-6.733c0-3.691,3.043-6.651,6.855-6.651C887.656,42.157,890.617,45.117,890.617,48.808 M878.653,48.808
		c0,2.962,2.19,5.313,5.192,5.313c2.92,0,5.069-2.351,5.069-5.272c0-2.962-2.149-5.354-5.11-5.354S878.653,45.887,878.653,48.808
		 M882.75,52.296h-1.542v-6.651c0.608-0.122,1.46-0.204,2.555-0.204c1.258,0,1.825,0.204,2.312,0.487
		c0.365,0.284,0.649,0.811,0.649,1.46c0,0.73-0.568,1.298-1.378,1.542v0.081c0.648,0.243,1.012,0.73,1.215,1.622
		c0.204,1.014,0.325,1.42,0.488,1.663h-1.663c-0.202-0.243-0.325-0.851-0.529-1.622c-0.121-0.73-0.526-1.055-1.378-1.055h-0.729
		V52.296z M882.79,48.524h0.73c0.852,0,1.541-0.284,1.541-0.973c0-0.609-0.446-1.015-1.419-1.015c-0.406,0-0.69,0.041-0.852,0.082
		V48.524z"/>
	<path style="clip-path:url(#SVGID_2_);fill:#012639;" d="M868.773,42.157h-11.858l-2.537,17.199h-12.675
		c-14.334,0-20.371,6.185-23.071,23.641c-1.647,10.371-0.551,17.888,3.255,22.345c2.72,3.187,6.902,4.803,12.43,4.803H858.2
		L868.773,42.157z M847.835,101.332h-10.241c-2.913,0-4.781-0.669-6.055-2.171c-2.034-2.398-2.371-6.92-1.095-14.661
		c1.77-11.292,5.394-16.33,11.748-16.33h11.01L847.835,101.332z"/>
	<path style="clip-path:url(#SVGID_2_);fill:#012639;" d="M811.518,63.44c-2.328-2.695-6.16-4.119-11.084-4.119h-10.198
		c0,0.021-0.001,0.043-0.001,0.064c-13.209,0.452-18.905,6.808-21.504,23.612c-1.646,10.371-0.55,17.888,3.254,22.345
		c2.722,3.188,6.904,4.803,12.432,4.803h22.256l1.702-8.813h-20.682c-2.913,0-4.781-0.669-6.055-2.171
		c-1.481-1.746-2.098-3.451-1.813-7.871c8.312,0,22.344-0.003,22.344-0.003l1.386-0.212c2.36-0.362,8.67-2.5,10.474-14.707
		C814.869,70.694,814.023,66.345,811.518,63.44 M801.831,76.679c-0.599,4.367-2.02,7.264-7.019,7.264l-14.266,0.018
		c0.181-0.996,0.649-2.994,0.865-3.884c1.985-8.192,5.427-11.907,10.881-11.907h5.88c1.393,0.113,2.371,0.518,3.028,1.259
		C802.162,70.512,802.184,73.731,801.831,76.679"/>
	<path style="clip-path:url(#SVGID_2_);fill:#FA8D29;" d="M426.342,63.44c-2.327-2.695-6.16-4.119-11.084-4.119H405.06
		c0,0.021,0,0.043-0.001,0.064c-13.209,0.452-18.904,6.808-21.504,23.612c-1.646,10.371-0.55,17.888,3.255,22.345
		c2.721,3.188,6.903,4.803,12.431,4.803h22.256l1.702-8.813h-20.682c-2.913,0-4.781-0.669-6.055-2.171
		c-1.48-1.746-2.098-3.451-1.812-7.871c8.311,0,22.343-0.003,22.343-0.003l1.386-0.212c2.36-0.362,8.67-2.5,10.475-14.707
		C429.693,70.694,428.848,66.345,426.342,63.44 M416.655,76.679c-0.598,4.367-2.02,7.264-7.019,7.264l-14.266,0.018
		c0.182-0.996,0.65-2.994,0.866-3.884c1.984-8.192,5.426-11.907,10.88-11.907h5.88c1.394,0.113,2.371,0.518,3.029,1.259
		C416.987,70.512,417.008,73.731,416.655,76.679"/>
	<path style="clip-path:url(#SVGID_2_);fill:#012639;" d="M675.85,58.921c-0.866-0.101-1.915-0.153-3.156-0.153
		c-2.606,0-5.019,0.381-7.241,1.143c-2.225,0.762-4.035,1.557-5.431,2.382c-1.289,0.761-2.878,1.796-4.76,3.097l0.954-6.163h-11.808
		l-7.948,51.104h11.845l4.6-29.714c0.681-4.402,3.695-8.138,7.908-9.584c0.022-0.008,0.044-0.015,0.066-0.023
		c2.163-0.73,4.67-1.121,7.509-1.179C670.262,65.083,672.704,61.539,675.85,58.921"/>
	<path style="clip-path:url(#SVGID_2_);fill:#FA8D29;" d="M469.923,58.921c-0.867-0.101-1.915-0.153-3.157-0.153
		c-2.606,0-5.019,0.381-7.241,1.143c-2.224,0.762-4.035,1.557-5.431,2.382c-1.289,0.761-2.878,1.796-4.76,3.097l0.954-6.163H438.48
		l-7.948,51.104h11.846l4.599-29.714c0.681-4.402,3.695-8.138,7.908-9.584c0.022-0.008,0.044-0.015,0.066-0.023
		c2.164-0.73,4.671-1.121,7.509-1.179L469.923,58.921z"/>
	<path style="clip-path:url(#SVGID_2_);fill:#012639;" d="M717.265,86.358c1.712-10.77,0.797-18.05-2.793-22.256
		C710.635,59.606,704.057,59,698.13,59c-14.55,0-23.654,1.672-27.377,24.855c-1.694,10.414-0.834,17.452,2.625,21.518
		c3.79,4.457,10.547,5.057,16.656,5.057C704.189,110.43,713.732,108.755,717.265,86.358 M683.367,98.803
		c-1.821-2.136-2.014-5.746-0.729-13.798c2.339-14.503,5.237-16.693,13.987-16.693c3.708,0,6.327,0.379,7.933,2.263
		c1.927,2.266,2.158,6.368,0.821,14.635c-1.992,12.489-4.985,15.907-13.918,15.907C687.115,101.117,684.768,100.447,683.367,98.803"
		/>
	<path style="clip-path:url(#SVGID_2_);fill:#FA8D29;" d="M277.229,86.358c1.712-10.77,0.798-18.05-2.792-22.256
		C270.599,59.606,264.022,59,258.094,59c-14.55,0-23.654,1.672-27.378,24.855c-1.693,10.414-0.833,17.452,2.626,21.518
		c3.79,4.457,10.547,5.057,16.656,5.057C264.154,110.43,273.696,108.755,277.229,86.358 M243.331,98.803
		c-1.821-2.136-2.013-5.746-0.728-13.798c2.338-14.503,5.235-16.693,13.986-16.693c3.707,0,6.327,0.379,7.933,2.263
		c1.927,2.266,2.158,6.368,0.82,14.635c-1.991,12.489-4.983,15.907-13.917,15.907C247.079,101.117,244.733,100.447,243.331,98.803"
		/>
	<path style="clip-path:url(#SVGID_2_);fill:#012639;" d="M579.717,64.029c-2.721-3.187-6.904-4.803-12.432-4.803h-23.882
		l-10.573,67.989h11.857l2.538-17.199H559.9c14.334,0,20.371-6.186,23.072-23.642C584.618,76.003,583.522,68.487,579.717,64.029
		 M571.159,84.871c-1.77,11.292-5.395,16.33-11.748,16.33h-11.01l5.366-33.162h10.243c2.913,0,4.781,0.669,6.054,2.171
		C572.098,72.608,572.435,77.13,571.159,84.871"/>
	<path style="clip-path:url(#SVGID_2_);fill:#012639;" d="M630.001,64.029c-2.722-3.187-6.904-4.803-12.432-4.803h-23.882
		l-10.573,67.989h11.857l2.538-17.199h12.674c14.335,0,20.372-6.186,23.072-23.642C634.901,76.003,633.805,68.487,630.001,64.029
		 M621.443,84.871c-1.77,11.292-5.395,16.33-11.748,16.33h-11.011l5.367-33.162h10.242c2.913,0,4.781,0.669,6.055,2.171
		C622.381,72.608,622.719,77.13,621.443,84.871"/>
	<path style="clip-path:url(#SVGID_2_);fill:#FA8D29;" d="M324.049,64.029c-2.721-3.187-6.903-4.803-12.432-4.803h-23.882
		l-10.573,67.989h11.858l2.537-17.199h12.675c14.334,0,20.372-6.186,23.072-23.642C328.95,76.003,327.854,68.487,324.049,64.029
		 M315.491,84.871c-1.77,11.292-5.394,16.33-11.748,16.33h-11.01l5.367-33.162h10.242c2.913,0,4.781,0.669,6.054,2.171
		C316.43,72.608,316.767,77.13,315.491,84.871"/>
	<path style="clip-path:url(#SVGID_2_);fill:#FA8D29;" d="M224.195,82.571c0.134-0.947,0.243-1.896,0.285-2.852
		c0.305-6.987-1.014-12.251-3.95-15.69c-2.721-3.187-6.903-4.803-12.431-4.803h-12.022l2.619-17.07H186.98l-10.574,67.988h11.858
		l6.461-42.105h10.098c2.913,0,4.781,0.669,6.055,2.171c2.034,2.398,2.371,6.92,1.094,14.661c-0.084,0.539-0.133,1.033-0.167,1.503
		l-3.696,23.77h11.857l2.733-17.806C222.984,91.015,223.81,85.282,224.195,82.571"/>
	<path style="clip-path:url(#SVGID_2_);fill:#FA8D29;" d="M374.333,64.029c-2.722-3.187-6.904-4.803-12.432-4.803h-23.882
		l-10.573,67.989h11.858l2.537-17.199h12.675c14.334,0,20.371-6.186,23.071-23.642C379.233,76.003,378.138,68.487,374.333,64.029
		 M365.775,84.871c-1.77,11.292-5.394,16.33-11.748,16.33h-11.01l5.367-33.162h10.241c2.913,0,4.781,0.669,6.055,2.171
		C366.714,72.608,367.051,77.13,365.775,84.871"/>
	<path style="clip-path:url(#SVGID_2_);fill:#FA8D29;" d="M156.605,42.29c-12.828,0-24.48,2.686-27.084,12.936
		c-1.263,4.97-0.178,9.208,1.434,12.438c1.823,3.652,7.338,7.564,12.359,10.174c2.74,1.425,6.891,3.558,10.268,5.298
		c6.43,3.314,6.336,8.475,5.013,11.694c-1.658,4.033-6.023,6.502-13.153,6.502h-22.07l-1.381,8.812h28.494
		c14.944,0,21.206-10.492,21.733-18.979c0.442-7.136-3.373-14.143-12.572-18.964c-3.619-1.896-5.115-2.429-13.779-7.156
		c-6.484-3.536-5.626-13.942,7.466-13.942h20.92l1.376-8.813H156.605z"/>
</g>
</svg>
