<?xml version="1.0" encoding="utf-8"?>
<!-- Generator: Adobe Illustrator 17.0.0, SVG Export Plug-In . SVG Version: 6.00 Build 0)  -->
<!DOCTYPE svg PUBLIC "-//W3C//DTD SVG 1.1//EN" "http://www.w3.org/Graphics/SVG/1.1/DTD/svg11.dtd">
<svg version="1.1" id="Layer_1" xmlns="http://www.w3.org/2000/svg" xmlns:xlink="http://www.w3.org/1999/xlink" x="0px" y="0px"
	 width="106.13px" height="106.364px" viewBox="0 0 106.13 106.364" style="enable-background:new 0 0 106.13 106.364;"
	 xml:space="preserve">
<g>
	<defs>
		<rect id="SVGID_1_" width="106.13" height="106.364"/>
	</defs>
	<clipPath id="SVGID_2_">
		<use xlink:href="#SVGID_1_"  style="overflow:visible;"/>
	</clipPath>
	<path style="clip-path:url(#SVGID_2_);fill:#9B9A9A;" d="M53.083,0C29.631,0,10.696,3.65,1.088,5.951
		c-1.53,9.89-8.908,74.032,51.976,100.413C113.97,79.975,106.567,15.799,105.04,5.94C95.417,3.639,76.5,0,53.083,0"/>
	<path style="clip-path:url(#SVGID_2_);fill:#FFFFFF;" d="M70.407,26.65c-12.409-9.267-29.869-7.025-39.612,4.807l-6.679-4.989
		l0.115,22.869l21.961-6.381l-6.566-4.905c6.091-6.973,16.646-8.201,24.186-2.57c7.911,5.908,9.541,17.154,3.632,25.065
		c-5.908,7.913-17.153,9.542-25.065,3.633c-2.851-2.128-4.856-4.958-6.013-8.066l-7.297,9.77c1.771,2.672,4.001,5.1,6.714,7.127
		c12.782,9.546,30.945,6.913,40.491-5.869C85.82,54.36,83.188,36.196,70.407,26.65"/>
</g>
</svg>
