<?xml version="1.0" encoding="utf-8"?>
<!-- Generator: Adobe Illustrator 17.0.0, SVG Export Plug-In . SVG Version: 6.00 Build 0)  -->
<!DOCTYPE svg PUBLIC "-//W3C//DTD SVG 1.1//EN" "http://www.w3.org/Graphics/SVG/1.1/DTD/svg11.dtd">
<svg version="1.1" id="Layer_1" xmlns="http://www.w3.org/2000/svg" xmlns:xlink="http://www.w3.org/1999/xlink" x="0px" y="0px"
	 width="106.13px" height="106.364px" viewBox="0 0 106.13 106.364" style="enable-background:new 0 0 106.13 106.364;"
	 xml:space="preserve">
<g>
	<defs>
		<rect id="SVGID_1_" width="106.13" height="106.364"/>
	</defs>
	<clipPath id="SVGID_2_">
		<use xlink:href="#SVGID_1_"  style="overflow:visible;"/>
	</clipPath>
	<path style="clip-path:url(#SVGID_2_);fill:#0795A0;" d="M53.083,0C29.631,0,10.696,3.65,1.088,5.951
		c-1.53,9.89-8.908,74.032,51.976,100.413C113.97,79.975,106.567,15.799,105.04,5.94C95.417,3.639,76.5,0,53.083,0"/>
	<path style="clip-path:url(#SVGID_2_);fill:#FFFFFF;" d="M62.17,50.676C73.7,28.905,65.226,17.26,53.052,17.26
		c-12.414,0-20.68,12.091-9.119,33.416c3.901,7.195-16.848,12.301-18,13.466c2.774,4.535,6.429,8.445,10.312,11.753
		c0.823,0.7,1.655,1.374,2.491,2.02c8.358,6.467,20.174,6.498,28.544,0.049l0.156-0.12c0.829-0.643,1.557-1.299,2.327-1.949
		c4.446-3.758,7.929-7.655,10.434-11.728C79.045,62.99,58.382,57.831,62.17,50.676"/>
</g>
</svg>
