<?xml version="1.0" encoding="utf-8"?>
<!-- Generator: Adobe Illustrator 17.0.0, SVG Export Plug-In . SVG Version: 6.00 Build 0)  -->
<!DOCTYPE svg PUBLIC "-//W3C//DTD SVG 1.1//EN" "http://www.w3.org/Graphics/SVG/1.1/DTD/svg11.dtd">
<svg version="1.1" id="Layer_1" xmlns="http://www.w3.org/2000/svg" xmlns:xlink="http://www.w3.org/1999/xlink" x="0px" y="0px"
	 width="155.79px" height="157.08px" viewBox="0 0 155.79 157.08" style="enable-background:new 0 0 155.79 157.08;"
	 xml:space="preserve">
<g>
	<defs>
		<rect id="SVGID_1_" width="155.79" height="157.08"/>
	</defs>
	<clipPath id="SVGID_2_">
		<use xlink:href="#SVGID_1_"  style="overflow:visible;"/>
	</clipPath>
	<path style="clip-path:url(#SVGID_2_);fill:#ED8A22;" d="M155.79,9.471c-0.061-0.428-0.12-0.829-0.173-1.171
		C143.977,5.516,123.159,1.413,97.03,0c35.906,32.892,28.61,81.368,4.417,105.501C129.69,86.91,153.947,51.046,155.79,9.471"/>
	<path style="clip-path:url(#SVGID_2_);fill:#50A145;" d="M78.913,121.08c9.008,4.166,26.444,8.45,45.501,3.775
		c17.855-19.874,26.339-42.92,30.106-63.375C132.605,97.819,101.045,113.905,78.913,121.08"/>
	<path style="clip-path:url(#SVGID_2_);fill:#0795A0;" d="M110.385,138.116c-41.389-6.013-66.131-37.161-72.402-66.832
		c1.015,18.224,12.25,56.02,40.567,85.768c0.022,0.009,0.041,0.019,0.064,0.028C91.027,151.701,101.516,145.259,110.385,138.116"/>
	<path style="clip-path:url(#SVGID_2_);fill:#E24F29;" d="M34.89,51.554c-6.504,2.92-18.231,9.427-30.038,19.741
		c5.939,23.387,18.559,48.838,44.16,68.534C31.646,103.204,32.571,70.935,34.89,51.554"/>
	<path style="clip-path:url(#SVGID_2_);fill:#0578B7;" d="M114.57,39.146C99.903,9.461,57.756-1.883,14.747,5.503
		c-4.556,0.869-8.528,1.73-11.84,2.505c-0.435,0.11-0.869,0.225-1.304,0.339c-0.875,5.67-3.012,23.196-0.197,44.84
		C39.286,34.932,80.101,32.16,114.57,39.146"/>
</g>
</svg>
