<?xml version="1.0" encoding="utf-8"?>
<!-- Generator: Adobe Illustrator 17.0.0, SVG Export Plug-In . SVG Version: 6.00 Build 0)  -->
<!DOCTYPE svg PUBLIC "-//W3C//DTD SVG 1.1//EN" "http://www.w3.org/Graphics/SVG/1.1/DTD/svg11.dtd">
<svg version="1.1" id="Layer_1" xmlns="http://www.w3.org/2000/svg" xmlns:xlink="http://www.w3.org/1999/xlink" x="0px" y="0px"
	 width="106.13px" height="106.364px" viewBox="0 0 106.13 106.364" style="enable-background:new 0 0 106.13 106.364;"
	 xml:space="preserve">
<g>
	<defs>
		<rect id="SVGID_1_" width="106.13" height="106.364"/>
	</defs>
	<clipPath id="SVGID_2_">
		<use xlink:href="#SVGID_1_"  style="overflow:visible;"/>
	</clipPath>
	<path style="clip-path:url(#SVGID_2_);fill:#9B9A9A;" d="M53.084,0C29.632,0,10.696,3.65,1.088,5.951
		c-1.53,9.89-8.908,74.032,51.976,100.413C113.97,79.975,106.567,15.799,105.041,5.94C95.417,3.639,76.5,0,53.084,0"/>
	<path style="clip-path:url(#SVGID_2_);fill:#097D9D;" d="M70.33,44.74c0,9.616-7.796,17.412-17.412,17.412
		S35.507,54.356,35.507,44.74s7.795-17.411,17.411-17.411S70.33,35.124,70.33,44.74"/>
	<path style="clip-path:url(#SVGID_2_);fill:#FFFFFF;" d="M53.111,20.105c-23.326,0-37.03,23.518-37.03,23.518
		s14.901,26.742,37.03,26.742c23.835,0,36.939-26.742,36.939-26.742S76.826,20.105,53.111,20.105"/>
	<path style="clip-path:url(#SVGID_2_);fill:#9B9A9A;" d="M53.065,27.285c-3.129,0-6.07,0.806-8.633,2.215
		c0.373-0.059,0.748-0.114,1.137-0.114c4.039,0,7.312,3.273,7.312,7.311c0,4.039-3.273,7.313-7.312,7.313
		c-4.038,0-7.312-3.274-7.312-7.313c0-0.707,0.132-1.378,0.32-2.024c-2.167,2.966-3.461,6.609-3.461,10.562
		c0,9.915,8.039,17.95,17.949,17.95c9.915,0,17.95-8.035,17.95-17.95C71.015,35.324,62.98,27.285,53.065,27.285"/>
</g>
</svg>
