<?xml version="1.0" encoding="iso-8859-1"?>
<!-- Generator: Adobe Illustrator 17.0.0, SVG Export Plug-In . SVG Version: 6.00 Build 0)  -->
<!DOCTYPE svg PUBLIC "-//W3C//DTD SVG 1.1//EN" "http://www.w3.org/Graphics/SVG/1.1/DTD/svg11.dtd">
<svg version="1.1" id="Layer_1" xmlns="http://www.w3.org/2000/svg" xmlns:xlink="http://www.w3.org/1999/xlink" x="0px" y="0px"
	 width="1224px" height="368.655px" viewBox="0 0 1224 368.655" style="enable-background:new 0 0 1224 368.655;"
	 xml:space="preserve">
<g>
	<g>
		<g>
			<path style="fill-rule:evenodd;clip-rule:evenodd;fill:#FFFFFF;" d="M65.087,304.622c16.304,0,29.524,13.187,29.524,29.462
				c0,16.276-13.22,29.47-29.524,29.47c-16.307,0-29.525-13.194-29.525-29.47C35.562,317.809,48.78,304.622,65.087,304.622z"/>
			<path style="fill-rule:evenodd;clip-rule:evenodd;fill:#FFFFFF;" d="M176.64,304.622c16.307,0,29.526,13.187,29.526,29.462
				c0,16.276-13.219,29.47-29.526,29.47c-16.304,0-29.522-13.194-29.522-29.47C147.118,317.809,160.336,304.622,176.64,304.622z"/>
		</g>
		<path style="fill-rule:evenodd;clip-rule:evenodd;fill:#FFFFFF;" d="M138.726,288.506h72.533
			C226.981,181.868,271.633,84.653,337.011,5.101C244.913,76.492,174.851,174.926,138.726,288.506z"/>
		<path style="fill-rule:evenodd;clip-rule:evenodd;fill:#FFFFFF;" d="M55.083,288.506h47.789
			C85.073,178.634,52.636,113.382,52.636,113.382s20.624,0,42.392,0c8.951,0,10.963,7.048,13.039,11.761
			c3.404,7.725,13.259,33.668,19.814,52.152c23.803-35.38,51.387-68.001,82.182-97.283H35.69c-17.953,0-31.815,15.783-29.498,33.586
			l19.394,149.001C27.514,277.418,40.139,288.506,55.083,288.506z"/>
	</g>
	<path style="fill:#FA8D29;" d="M479.336,97.509c2.161-13.502,12.003-17.6,23.868-17.6c11.214,0,18.754,0,29.672,0l-1.699,12.012
		c-10.132,0-22.08,0-25.88,0c-6.423-0.093-10.336,0.277-11.348,6.61l-0.376,2.236c-0.859,5.402,1.279,6.52,7.193,6.52h12.242
		c15.197,0,16.576,10.521,15.371,18.064l-0.728,4.565c-2.468,15.46-13.8,18.346-24.251,18.346c-13.189,0-22.337,0-29.881,0
		l2.014-12.013c0,0,17.018,0,26.833,0c4.436,0,9.602-0.652,10.438-5.867l0.577-3.63c0.624-3.912-0.24-6.428-5.938-6.428h-11.819
		c-18.682,0-18.016-12.105-17.064-18.066L479.336,97.509z"/>
	<path style="fill:#FA8D29;" d="M572.711,80.094h14.776l-4.672,29.24h26.49l4.674-29.24h14.774l-10.889,68.168h-14.774l4.311-27.006
		H580.91l-4.311,27.006h-14.776L572.711,80.094z"/>
	<path style="fill:#FA8D29;" d="M694.747,79.253c18.257,0,30.537,3.073,25.433,35.014c-4.803,30.081-17.46,33.994-36.458,33.994
		c-18.996,0-30.553-2.981-25.598-33.994C663.226,82.326,677.015,79.253,694.747,79.253z M685.642,136.246
		c12.453,0,16.835-3.631,19.765-21.978c3.389-21.232-0.864-23-12.579-23c-11.399,0-16.461,1.301-19.927,23
		C669.923,132.892,672.449,136.246,685.642,136.246z"/>
	<path style="fill:#FA8D29;" d="M760.263,79.748h33.247c9.709,0,20.991,2.7,18.061,21.047
		c-3.315,20.765-16.132,21.977-24.932,21.977c-6.464,0-18.325,0-18.325,0l-4.363,25.49h-14.778L760.263,79.748z M787.32,111.226
		c4.645,0,8.047-2.144,9.355-10.337c1.174-8.011-2.476-9.592-6.17-9.592h-17.311l-3.181,19.929H787.32z"/>
	<path style="fill:#FA8D29;" d="M847.196,79.748h33.244c9.711,0,20.992,2.7,18.062,21.047
		c-3.317,20.765-16.133,21.977-24.935,21.977c-6.461,0-18.322,0-18.322,0l-4.365,25.49h-14.778L847.196,79.748z M874.251,111.226
		c4.642,0,8.045-2.144,9.354-10.337c1.172-8.011-2.478-9.592-6.169-9.592h-17.307l-3.186,19.929H874.251z"/>
	<path style="fill:#FA8D29;" d="M929.678,93.936c1.888-11.824,11.776-14.245,19.044-14.151h34.041l-2.025,12.291h-30.499
		c-5.487,0-5.919,2.701-6.32,5.214l-1.696,10.618h31.297l-2.044,12.571h-31.264l-1.695,10.615c-0.79,4.937,2.709,4.846,5.77,4.846
		h29.447l-2.023,12.291h-32.87c-6.907,0.281-17.658-1.116-15.65-13.687L929.678,93.936z"/>
	<path style="fill:#FA8D29;" d="M1017.791,80.094h33.774c12.135,0,20.319,4.933,17.713,21.231
		c-2.692,16.854-11.038,18.904-15.561,20.116l10.388,26.822h-16.674l-8.652-25.796h-12.881l-4.219,25.796h-14.777L1017.791,80.094z
		 M1045.269,110.917c5.065,0,7.806-1.304,9.128-9.592c1.237-7.729-1.408-9.683-6.052-9.683h-17.519l-3.079,19.275H1045.269z"/>
	<path style="fill:#FFFFFF;" d="M379.462,245.387l5.37,42.563h27.337c-0.541-16.611-16.264-152.112-16.264-152.112
		s-9.692-0.021-13.803-0.021c-16.114,0-29.812,4.896-43.772,28.53c-30.945,52.388-63.221,109.299-71.315,123.603h27.907
		c5.063-9.085,5.377-11.604,9.241-17.75c11.734-18.658,26.465-24.812,44.749-24.812
		C352.598,245.387,379.462,245.387,379.462,245.387z M370.845,162.586l6.895,66.921h-50.675c0,0,35.548-57.684,38.044-61.942
		C367.604,163.305,370.845,162.586,370.845,162.586z"/>
	<path style="fill:#FFFFFF;" d="M951.118,174.459l0.232-0.444h-29.414l-41.961,87.077l-10.282-87.077H841.59
		c2.068,11.763,17.404,113.905,17.404,113.905s6.407,0,16.438,0c11.91,0,17.235,0,17.235,0S944.079,188.045,951.118,174.459z"/>
	<g>
		<path style="fill:#FFFFFF;" d="M1220.062,149.13c0,8.459-6.64,15.099-15.281,15.099c-8.549,0-15.372-6.64-15.372-15.099
			c0-8.277,6.823-14.917,15.372-14.917C1213.422,134.212,1220.062,140.852,1220.062,149.13z M1193.23,149.13
			c0,6.641,4.911,11.916,11.643,11.916c6.549,0,11.368-5.275,11.368-11.825c0-6.641-4.82-12.008-11.46-12.008
			S1193.23,142.58,1193.23,149.13z M1202.417,156.953h-3.457v-14.919c1.365-0.273,3.274-0.455,5.73-0.455
			c2.822,0,4.093,0.455,5.186,1.092c0.819,0.637,1.454,1.819,1.454,3.274c0,1.637-1.274,2.911-3.091,3.457v0.182
			c1.454,0.545,2.273,1.637,2.728,3.639c0.455,2.273,0.727,3.183,1.093,3.729h-3.729c-0.455-0.547-0.73-1.909-1.185-3.638
			c-0.272-1.639-1.182-2.367-3.091-2.367h-1.637V156.953z M1202.509,148.493h1.637c1.909,0,3.455-0.637,3.455-2.182
			c0-1.365-0.999-2.275-3.183-2.275c-0.91,0-1.546,0.092-1.909,0.183V148.493z"/>
	</g>
	<path style="fill:#FFFFFF;" d="M1171.071,135.442h-26.593l-5.692,38.573h-28.425c-32.148,0-45.688,13.872-51.742,53.02
		c-3.693,23.26-1.236,40.117,7.299,50.114c6.103,7.147,15.482,10.77,27.88,10.77h53.562L1171.071,135.442z M1124.114,268.156
		h-22.969c-6.533,0-10.723-1.501-13.579-4.869c-4.561-5.378-5.318-15.519-2.455-32.881c3.969-25.324,12.098-36.623,26.348-36.623
		h24.693L1124.114,268.156z"/>
	<path style="fill:#FFFFFF;" d="M1042.664,183.175c-5.219-6.044-13.814-9.239-24.858-9.239h-22.87c0,0.048-0.002,0.096-0.002,0.145
		c-29.625,1.012-42.399,15.268-48.227,52.955c-3.693,23.26-1.236,40.117,7.299,50.114c6.103,7.147,15.482,10.771,27.88,10.771
		h49.914l3.816-19.764h-46.383c-6.533,0-10.723-1.501-13.58-4.869c-3.321-3.916-4.706-7.74-4.065-17.654
		c18.64,0.001,50.11-0.005,50.11-0.005l3.107-0.477c5.294-0.811,19.444-5.607,23.493-32.984
		C1050.179,199.442,1048.284,189.688,1042.664,183.175z M1020.938,212.866c-1.341,9.794-4.529,16.29-15.74,16.29l-31.995,0.042
		c0.408-2.235,1.457-6.714,1.941-8.71c4.451-18.372,12.17-26.704,24.401-26.704h13.188c3.125,0.254,5.318,1.162,6.792,2.823
		C1021.682,199.036,1021.73,206.255,1020.938,212.866z"/>
	<g>
		<path style="fill:#FFFFFF;" d="M738.399,173.04c-1.943-0.227-4.295-0.345-7.08-0.345c-5.843,0-11.255,0.855-16.239,2.564
			c-4.988,1.71-9.048,3.492-12.18,5.342c-2.89,1.708-6.453,4.029-10.675,6.947l2.14-13.823h-26.483l-17.823,114.612h26.565
			l10.315-66.639c1.528-9.872,8.287-18.252,17.736-21.495c0.05-0.017,0.099-0.034,0.149-0.051
			c4.853-1.639,10.474-2.515,16.841-2.645C725.866,186.858,731.344,178.912,738.399,173.04z"/>
	</g>
	<path style="fill:#FFFFFF;" d="M831.283,234.573c3.839-24.154,1.788-40.481-6.262-49.913
		c-8.607-10.085-23.358-11.443-36.653-11.443c-32.63,0-53.048,3.751-61.399,55.743c-3.797,23.356-1.87,39.139,5.888,48.26
		c8.5,9.994,23.654,11.34,37.355,11.34C801.957,288.56,823.359,284.802,831.283,234.573z M755.258,262.484
		c-4.085-4.79-4.515-12.887-1.633-30.946c5.245-32.526,11.742-37.438,31.367-37.438c8.314,0,14.19,0.851,17.791,5.076
		c4.322,5.081,4.839,14.282,1.84,32.824c-4.468,28.007-11.177,35.676-31.213,35.676
		C763.664,267.675,758.402,266.171,755.258,262.484z"/>
	<path style="fill:#FFFFFF;" d="M522.8,184.495c-6.103-7.147-15.482-10.77-27.88-10.77h-53.561l-23.712,152.478h26.593l5.691-38.573
		h28.425c32.148,0,45.688-13.872,51.742-53.02C533.792,211.35,531.334,194.493,522.8,184.495z M503.607,231.239
		c-3.968,25.324-12.098,36.623-26.348,36.623h-24.692l12.037-74.374h22.969c6.533,0,10.723,1.501,13.579,4.869
		C505.714,203.736,506.47,213.877,503.607,231.239z"/>
	<path style="fill:#FFFFFF;" d="M635.573,184.495c-6.103-7.147-15.482-10.77-27.88-10.77h-53.561l-23.712,152.478h26.593
		l5.691-38.573h28.425c32.148,0,45.688-13.872,51.742-53.02C646.564,211.35,644.107,194.493,635.573,184.495z M616.38,231.239
		c-3.968,25.324-12.097,36.623-26.348,36.623H565.34l12.037-74.374h22.969c6.533,0,10.723,1.501,13.579,4.869
		C618.486,203.736,619.243,213.877,616.38,231.239z"/>
</g>
</svg>
