<?xml version="1.0" encoding="iso-8859-1"?>
<!-- Generator: Adobe Illustrator 17.0.0, SVG Export Plug-In . SVG Version: 6.00 Build 0)  -->
<!DOCTYPE svg PUBLIC "-//W3C//DTD SVG 1.1//EN" "http://www.w3.org/Graphics/SVG/1.1/DTD/svg11.dtd">
<svg version="1.1" id="Objects" xmlns="http://www.w3.org/2000/svg" xmlns:xlink="http://www.w3.org/1999/xlink" x="0px" y="0px"
	 width="59px" height="126px" viewBox="0 0 59 126" style="enable-background:new 0 0 59 126;" xml:space="preserve">
<path id="XMLID_143_" style="fill:#FFFFFF;" d="M22.177,26.994c0,0,3.595-2.749,5.604-2.749c0,0,0.951,0.105,1.163-1.691
	l-0.317-3.278c0,0-0.846,0.423-1.163-1.48c0,0-0.528-3.171,0.74-2.114l-0.316-2.538c0,0-0.635-1.057,0.316-1.375
	c0,0-0.634-1.797,0.635-1.903c0,0,1.374-1.797,2.22-1.057c0,0,1.058-1.375,1.692-0.634c0,0,1.883-0.314,2.473,0.274
	c0.094,0.095,0.156,0.213,0.17,0.36c0.105,1.057,1.058-0.316,1.058,1.163c0,0,1.903-0.846,1.798,1.48c0,0,1.057-0.106,0.634,1.586
	l-0.106,2.749c0,0,0.635,2.855-1.057,3.701c0,0-1.586,3.383,0,4.651c0,0,4.018,1.27,6.027,2.643c0,0,0.951,0.74,1.797,1.057
	c0,0,3.065,0.528,2.748,9.515c0,0,0.635,2.008,1.375,3.172c0,0,0.846,1.586,0.74,3.172c0,0,1.374,0.741,1.057,3.384
	c0,0-0.105,2.114,0,2.96c0,0,0.212,0.634-0.423,1.375l-1.163,1.375c0,0-1.162,1.162-2.114,0.105l-4.969-4.124
	c0,0-1.692,3.701-0.74,10.15c0,0,1.797,7.93-0.74,17.127c0,0-0.528,3.277-1.586,6.661c0,0,2.114,3.172,0.317,5.287
	c0,0,0.316,4.546-3.384,7.083c0,0-3.911,3.172-3.595-3.172c0,0-1.797-1.163-1.691-5.92c0,0-0.106-6.661-0.846-8.564l-0.423-2.009
	c0,0-0.952,1.163-2.326,2.22c0,0-0.952,1.798-1.479,2.644c0,0-0.424,4.651-1.692,6.449c0,0,0.952,8.458-0.528,10.679
	c0,0-2.326,7.295-2.537,9.409c0,0-0.106,1.904,0.316,3.278c0,0,0.74,1.374,0.106,2.008c0,0,1.269,5.286-0.635,5.71
	c0,0-0.317,0.422-2.326,0.634c0,0-3.911,2.009-4.229-0.423c0,0-0.634-2.643,1.587-3.172c0,0,0.105-1.903,0.739-2.854
	c0,0,0-2.855,0.952-2.75c0,0-0.635-11.418-0.952-14.378c0,0-1.268-4.863,0.952-7.93c0,0,0.951-2.01,1.058-3.066
	c0,0-0.529-2.643,0.634-4.334c0,0,0.317-3.172-0.528-6.132c0,0-1.903-2.643-0.212-8.458c0,0,0.001-6.767,1.798-8.67
	c0,0-0.105-5.392,1.163-7.4l0.528-6.661c0,0-4.863,6.132-7.4,7.506c0,0-3.172,2.325-3.807,3.383c0,0,0.211,1.797-0.846,2.749
	c0,0-1.164,1.375-1.164,2.855c0,0,0,1.481-0.633,1.268l0.211,0.529c0,0,1.268,0.211,0.74,0.846c0,0,0.316,1.691-0.951,0.74
	l-2.115-0.317l-1.375-1.163l0.424-3.701c0,0,1.691-3.594,3.066-5.286c0,0,4.123-5.392,5.074-7.613c0,0,2.432-5.287,4.863-6.343
	l0.212-3.277C18.794,34.395,15.199,26.782,22.177,26.994z"/>
</svg>
